<svg xmlns="http://www.w3.org/2000/svg" xmlns:xlink="http://www.w3.org/1999/xlink" xmlns:lucid="lucid" width="528.33" height="1206.47"><g transform="translate(-723.6666666665892 -64.66666666666669)" lucid:page-tab-id="TnH5Sg-l9LkK"><g class="lucid-layer" lucid:layer-id="ZrH5JmFwdjw9" display="block"><path d="M746.67 969.14a6 6 0 0 1 6-6h228a6 6 0 0 1 6 6v48a6 6 0 0 1-6 6h-228a6 6 0 0 1-6-6z" fill="none"/><use xlink:href="#a" transform="matrix(1,0,0,1,746.6666666665892,963.1381066570078) translate(0 41.20713975694444)"/><path d="M776 1055.8a6 6 0 0 1 6-6h228a6 6 0 0 1 6 6v48a6 6 0 0 1-6 6H782a6 6 0 0 1-6-6z" fill="none"/><use xlink:href="#b" transform="matrix(1,0,0,1,775.9999999999613,1049.8047733236358) translate(0 38.62087673611111)"/><path d="M776 1126.47a6 6 0 0 1 6-6h228a6 6 0 0 1 6 6v48a6 6 0 0 1-6 6H782a6 6 0 0 1-6-6z" fill="none"/><use xlink:href="#c" transform="matrix(1,0,0,1,775.9999999999613,1120.47143999038) translate(0 38.62087673611111)"/><path d="M776 1197.14a6 6 0 0 1 6-6h228a6 6 0 0 1 6 6v48a6 6 0 0 1-6 6H782a6 6 0 0 1-6-6z" fill="none"/><use xlink:href="#d" transform="matrix(1,0,0,1,775.9999999999613,1191.138106657008) translate(0 38.62087673611111)"/></g><g class="lucid-layer" lucid:layer-id="QrH5vo_bVUm2" display="block"><path d="M746.67 621.33a6 6 0 0 1 6-6h228a6 6 0 0 1 6 6v48a6 6 0 0 1-6 6h-228a6 6 0 0 1-6-6z" fill="none"/><use xlink:href="#e" transform="matrix(1,0,0,1,746.6666666666279,615.3333333333721) translate(0 41.20713975694444)"/><path d="M776 708a6 6 0 0 1 6-6h228a6 6 0 0 1 6 6v48a6 6 0 0 1-6 6H782a6 6 0 0 1-6-6z" fill="none"/><use xlink:href="#f" transform="matrix(1,0,0,1,776,702) translate(0 38.62087673611111)"/><path d="M776 778.67a6 6 0 0 1 6-6h228a6 6 0 0 1 6 6v48a6 6 0 0 1-6 6H782a6 6 0 0 1-6-6z" fill="none"/><use xlink:href="#g" transform="matrix(1,0,0,1,776,772.6666666667443) translate(0 38.62087673611111)"/><path d="M776 849.33a6 6 0 0 1 6-6h228a6 6 0 0 1 6 6v48a6 6 0 0 1-6 6H782a6 6 0 0 1-6-6z" fill="none"/><use xlink:href="#h" transform="matrix(1,0,0,1,776,843.3333333333721) translate(0 38.62087673611111)"/></g><g class="lucid-layer" lucid:layer-id="DrH51ay5KWl4" display="block"><path d="M746.67 289.33a6 6 0 0 1 6-6h228a6 6 0 0 1 6 6v48a6 6 0 0 1-6 6h-228a6 6 0 0 1-6-6z" fill="none"/><use xlink:href="#i" transform="matrix(1,0,0,1,746.6666666666665,283.3333333333333) translate(0 41.20713975694444)"/><path d="M776 376a6 6 0 0 1 6-6h228a6 6 0 0 1 6 6v48a6 6 0 0 1-6 6H782a6 6 0 0 1-6-6z" fill="none"/><use xlink:href="#j" transform="matrix(1,0,0,1,775.9999999999613,369.99999999999994) translate(0 38.62087673611111)"/><path d="M776 446.67a6 6 0 0 1 6-6h228a6 6 0 0 1 6 6v48a6 6 0 0 1-6 6H782a6 6 0 0 1-6-6z" fill="none"/><use xlink:href="#k" transform="matrix(1,0,0,1,775.9999999999613,440.6666666667055) translate(0 38.62087673611111)"/><path d="M776 517.33a6 6 0 0 1 6-6h228a6 6 0 0 1 6 6v48a6 6 0 0 1-6 6H782a6 6 0 0 1-6-6z" fill="none"/><use xlink:href="#l" transform="matrix(1,0,0,1,775.9999999999613,511.3333333334111) translate(0 38.62087673611111)"/></g><g class="lucid-layer" lucid:layer-id="srH56o9-Qd3W" display="block"><path d="M746.67 90.67a6 6 0 0 1 6-6H1226a6 6 0 0 1 6 6v150.66a6 6 0 0 1-6 6H752.67a6 6 0 0 1-6-6z" fill="none"/><use xlink:href="#m" transform="matrix(1,0,0,1,746.6666666666665,84.66666666666669) translate(0 99.60384114583333)"/><use xlink:href="#n" transform="matrix(1,0,0,1,746.6666666666665,84.66666666666669) translate(122.65950520833327 99.60384114583333)"/></g><defs><path fill="#3a414a" d="M715 0H553c4-427-9-874 8-1288-79 77-94 81-285 239l-88-114 387-299h140V0" id="o"/><path fill="#3a414a" d="M1069-733c0 253-39 441-119 566S748 20 584 20c-157 0-277-64-359-192S102-486 102-733c0-255 40-444 119-567s200-185 363-185c159 0 280 64 362 193s123 315 123 559zm-724-463c-95 160-94 768 0 928 55 94 130 145 239 145 111 0 185-52 240-147 94-164 94-761 0-924-55-95-129-147-240-147-109 0-184 52-239 145" id="p"/><path fill="#3a414a" d="M270 29c-76 0-118-48-118-135 0-84 38-135 118-136 81 0 123 51 123 136 0 82-44 135-123 135" id="q"/><path fill="#3a414a" d="M731-1462L186 0H20l545-1462h166" id="r"/><path fill="#3a414a" d="M152-1135c0-225 192-348 432-348 245 0 434 118 434 350 0 72-22 138-67 197S835-823 737-774c119 57 203 116 253 178s75 135 75 217c0 256-203 399-475 399-288 0-486-123-486-393 0-167 102-298 306-391-92-52-158-108-198-168s-60-128-60-203zM586-115c184 0 314-89 315-262 0-65-26-123-78-173s-143-99-272-146c-99 43-171 90-216 142s-67 113-67 185c1 172 134 254 318 254zm268-1013c-1-144-117-220-272-220-153 0-266 77-267 220 0 61 20 114 59 158s112 88 218 132c95-40 162-83 202-129s60-100 60-161" id="s"/><g id="a"><use transform="matrix(0.014105902777777775,0,0,0.014105902777777775,0,0)" xlink:href="#o"/><use transform="matrix(0.014105902777777775,0,0,0.014105902777777775,16.518012152777775,0)" xlink:href="#p"/><use transform="matrix(0.014105902777777775,0,0,0.014105902777777775,33.03602430555555,0)" xlink:href="#q"/><use transform="matrix(0.014105902777777775,0,0,0.014105902777777775,40.723741319444436,0)" xlink:href="#p"/><use transform="matrix(0.014105902777777775,0,0,0.014105902777777775,57.241753472222214,0)" xlink:href="#q"/><use transform="matrix(0.014105902777777775,0,0,0.014105902777777775,64.9294704861111,0)" xlink:href="#p"/><use transform="matrix(0.014105902777777775,0,0,0.014105902777777775,81.44748263888887,0)" xlink:href="#q"/><use transform="matrix(0.014105902777777775,0,0,0.014105902777777775,89.13519965277776,0)" xlink:href="#p"/><use transform="matrix(0.014105902777777775,0,0,0.014105902777777775,105.65321180555553,0)" xlink:href="#r"/><use transform="matrix(0.014105902777777775,0,0,0.014105902777777775,116.26085069444441,0)" xlink:href="#s"/><path fill="#3a414a" d="M-1.44 1.45h135.67V2.9H-1.44z"/></g><path fill="#3a414a" d="M557-1483c261-2 449 121 449 365 0 202-125 312-301 348v8c212 25 346 130 346 348 0 303-232 437-557 434C328 19 210-2 94-59v-158c108 55 257 96 406 96 253 0 379-99 379-297 0-177-139-266-418-266H317v-143h146c207 3 370-92 371-285 1-150-117-233-273-229-171 4-249 44-375 122l-84-112c109-87 268-150 455-152" id="t"/><path fill="#3a414a" d="M559-1483c258 0 441 142 440 389 0 93-26 184-78 275-109 192-433 475-612 657v8h752V0H100v-143c177-182 479-462 617-641 67-87 110-168 112-303 2-158-106-258-268-254-165 4-240 52-354 139l-88-113c135-112 281-168 440-168" id="u"/><path fill="#3a414a" d="M512-123c223 0 372-106 371-323 0-204-125-306-375-306-63 0-148 10-254 29l-86-55 55-684h727v153H365l-37 439c77-15 153-23 229-23 289 0 496 151 496 428 0 312-221 485-543 485-165 0-290-26-377-79v-160c85 57 241 96 379 96" id="v"/><g id="b"><use transform="matrix(0.01085069444444444,0,0,0.01085069444444444,0,0)" xlink:href="#o"/><use transform="matrix(0.01085069444444444,0,0,0.01085069444444444,12.70616319444444,0)" xlink:href="#p"/><use transform="matrix(0.01085069444444444,0,0,0.01085069444444444,25.41232638888888,0)" xlink:href="#q"/><use transform="matrix(0.01085069444444444,0,0,0.01085069444444444,31.3259548611111,0)" xlink:href="#t"/><use transform="matrix(0.01085069444444444,0,0,0.01085069444444444,44.03211805555554,0)" xlink:href="#u"/><use transform="matrix(0.01085069444444444,0,0,0.01085069444444444,56.73828124999999,0)" xlink:href="#q"/><use transform="matrix(0.01085069444444444,0,0,0.01085069444444444,62.65190972222221,0)" xlink:href="#o"/><use transform="matrix(0.01085069444444444,0,0,0.01085069444444444,75.35807291666664,0)" xlink:href="#v"/><use transform="matrix(0.01085069444444444,0,0,0.01085069444444444,88.06423611111109,0)" xlink:href="#q"/><use transform="matrix(0.01085069444444444,0,0,0.01085069444444444,93.9778645833333,0)" xlink:href="#t"/><use transform="matrix(0.01085069444444444,0,0,0.01085069444444444,106.68402777777774,0)" xlink:href="#s"/></g><path fill="#3a414a" d="M1130-336H913V0H754v-336H43v-145l694-989h176v983h217v151zM754-487c2-284-7-530 10-809h-8c-32 64-61 118-90 159L209-487h545" id="w"/><g id="c"><use transform="matrix(0.01085069444444444,0,0,0.01085069444444444,0,0)" xlink:href="#o"/><use transform="matrix(0.01085069444444444,0,0,0.01085069444444444,12.70616319444444,0)" xlink:href="#p"/><use transform="matrix(0.01085069444444444,0,0,0.01085069444444444,25.41232638888888,0)" xlink:href="#q"/><use transform="matrix(0.01085069444444444,0,0,0.01085069444444444,31.3259548611111,0)" xlink:href="#o"/><use transform="matrix(0.01085069444444444,0,0,0.01085069444444444,44.03211805555554,0)" xlink:href="#w"/><use transform="matrix(0.01085069444444444,0,0,0.01085069444444444,56.73828124999999,0)" xlink:href="#v"/><use transform="matrix(0.01085069444444444,0,0,0.01085069444444444,69.44444444444443,0)" xlink:href="#q"/><use transform="matrix(0.01085069444444444,0,0,0.01085069444444444,75.35807291666664,0)" xlink:href="#s"/><use transform="matrix(0.01085069444444444,0,0,0.01085069444444444,88.06423611111109,0)" xlink:href="#p"/><use transform="matrix(0.01085069444444444,0,0,0.01085069444444444,100.77039930555551,0)" xlink:href="#q"/><use transform="matrix(0.01085069444444444,0,0,0.01085069444444444,106.68402777777774,0)" xlink:href="#o"/><use transform="matrix(0.01085069444444444,0,0,0.01085069444444444,119.39019097222219,0)" xlink:href="#v"/><use transform="matrix(0.01085069444444444,0,0,0.01085069444444444,132.09635416666663,0)" xlink:href="#v"/></g><g id="d"><use transform="matrix(0.01085069444444444,0,0,0.01085069444444444,0,0)" xlink:href="#o"/><use transform="matrix(0.01085069444444444,0,0,0.01085069444444444,12.70616319444444,0)" xlink:href="#p"/><use transform="matrix(0.01085069444444444,0,0,0.01085069444444444,25.41232638888888,0)" xlink:href="#q"/><use transform="matrix(0.01085069444444444,0,0,0.01085069444444444,31.3259548611111,0)" xlink:href="#u"/><use transform="matrix(0.01085069444444444,0,0,0.01085069444444444,44.03211805555554,0)" xlink:href="#v"/><use transform="matrix(0.01085069444444444,0,0,0.01085069444444444,56.73828124999999,0)" xlink:href="#v"/><use transform="matrix(0.01085069444444444,0,0,0.01085069444444444,69.44444444444443,0)" xlink:href="#q"/><use transform="matrix(0.01085069444444444,0,0,0.01085069444444444,75.35807291666664,0)" xlink:href="#u"/><use transform="matrix(0.01085069444444444,0,0,0.01085069444444444,88.06423611111109,0)" xlink:href="#v"/><use transform="matrix(0.01085069444444444,0,0,0.01085069444444444,100.77039930555551,0)" xlink:href="#v"/><use transform="matrix(0.01085069444444444,0,0,0.01085069444444444,113.47656249999999,0)" xlink:href="#q"/><use transform="matrix(0.01085069444444444,0,0,0.01085069444444444,119.39019097222219,0)" xlink:href="#u"/><use transform="matrix(0.01085069444444444,0,0,0.01085069444444444,132.09635416666663,0)" xlink:href="#v"/><use transform="matrix(0.01085069444444444,0,0,0.01085069444444444,144.80251736111106,0)" xlink:href="#v"/></g><path fill="#3a414a" d="M610 20c-332-4-493-282-493-645 0-287 55-503 167-645s277-213 496-213c75 0 135 6 178 19v143c-51-17-110-25-176-25-157 0-276 48-359 146S295-948 287-739h12c73-115 189-172 348-172 263 0 424 177 424 442 0 293-175 492-461 489zM287-506c0 212 112 385 321 385 200 0 299-137 299-348 0-191-98-312-291-311-128 1-231 59-284 139-30 43-45 88-45 135" id="x"/><g id="e"><use transform="matrix(0.014105902777777775,0,0,0.014105902777777775,0,0)" xlink:href="#o"/><use transform="matrix(0.014105902777777775,0,0,0.014105902777777775,16.518012152777775,0)" xlink:href="#p"/><use transform="matrix(0.014105902777777775,0,0,0.014105902777777775,33.03602430555555,0)" xlink:href="#q"/><use transform="matrix(0.014105902777777775,0,0,0.014105902777777775,40.723741319444436,0)" xlink:href="#p"/><use transform="matrix(0.014105902777777775,0,0,0.014105902777777775,57.241753472222214,0)" xlink:href="#q"/><use transform="matrix(0.014105902777777775,0,0,0.014105902777777775,64.9294704861111,0)" xlink:href="#p"/><use transform="matrix(0.014105902777777775,0,0,0.014105902777777775,81.44748263888887,0)" xlink:href="#q"/><use transform="matrix(0.014105902777777775,0,0,0.014105902777777775,89.13519965277776,0)" xlink:href="#p"/><use transform="matrix(0.014105902777777775,0,0,0.014105902777777775,105.65321180555553,0)" xlink:href="#r"/><use transform="matrix(0.014105902777777775,0,0,0.014105902777777775,116.26085069444441,0)" xlink:href="#o"/><use transform="matrix(0.014105902777777775,0,0,0.014105902777777775,132.7788628472222,0)" xlink:href="#x"/><path fill="#3a414a" d="M-1.44 1.45h152.2V2.9H-1.45z"/></g><g id="f"><use transform="matrix(0.01085069444444444,0,0,0.01085069444444444,0,0)" xlink:href="#o"/><use transform="matrix(0.01085069444444444,0,0,0.01085069444444444,12.70616319444444,0)" xlink:href="#p"/><use transform="matrix(0.01085069444444444,0,0,0.01085069444444444,25.41232638888888,0)" xlink:href="#q"/><use transform="matrix(0.01085069444444444,0,0,0.01085069444444444,31.3259548611111,0)" xlink:href="#p"/><use transform="matrix(0.01085069444444444,0,0,0.01085069444444444,44.03211805555554,0)" xlink:href="#q"/><use transform="matrix(0.01085069444444444,0,0,0.01085069444444444,49.94574652777776,0)" xlink:href="#o"/><use transform="matrix(0.01085069444444444,0,0,0.01085069444444444,62.6519097222222,0)" xlink:href="#v"/><use transform="matrix(0.01085069444444444,0,0,0.01085069444444444,75.35807291666664,0)" xlink:href="#q"/><use transform="matrix(0.01085069444444444,0,0,0.01085069444444444,81.27170138888886,0)" xlink:href="#t"/><use transform="matrix(0.01085069444444444,0,0,0.01085069444444444,93.9778645833333,0)" xlink:href="#s"/></g><g id="g"><use transform="matrix(0.01085069444444444,0,0,0.01085069444444444,0,0)" xlink:href="#o"/><use transform="matrix(0.01085069444444444,0,0,0.01085069444444444,12.70616319444444,0)" xlink:href="#p"/><use transform="matrix(0.01085069444444444,0,0,0.01085069444444444,25.41232638888888,0)" xlink:href="#q"/><use transform="matrix(0.01085069444444444,0,0,0.01085069444444444,31.3259548611111,0)" xlink:href="#p"/><use transform="matrix(0.01085069444444444,0,0,0.01085069444444444,44.03211805555554,0)" xlink:href="#q"/><use transform="matrix(0.01085069444444444,0,0,0.01085069444444444,49.94574652777776,0)" xlink:href="#s"/><use transform="matrix(0.01085069444444444,0,0,0.01085069444444444,62.6519097222222,0)" xlink:href="#p"/><use transform="matrix(0.01085069444444444,0,0,0.01085069444444444,75.35807291666664,0)" xlink:href="#q"/><use transform="matrix(0.01085069444444444,0,0,0.01085069444444444,81.27170138888886,0)" xlink:href="#o"/><use transform="matrix(0.01085069444444444,0,0,0.01085069444444444,93.9778645833333,0)" xlink:href="#v"/><use transform="matrix(0.01085069444444444,0,0,0.01085069444444444,106.68402777777774,0)" xlink:href="#v"/></g><g id="h"><use transform="matrix(0.01085069444444444,0,0,0.01085069444444444,0,0)" xlink:href="#o"/><use transform="matrix(0.01085069444444444,0,0,0.01085069444444444,12.70616319444444,0)" xlink:href="#p"/><use transform="matrix(0.01085069444444444,0,0,0.01085069444444444,25.41232638888888,0)" xlink:href="#q"/><use transform="matrix(0.01085069444444444,0,0,0.01085069444444444,31.3259548611111,0)" xlink:href="#p"/><use transform="matrix(0.01085069444444444,0,0,0.01085069444444444,44.03211805555554,0)" xlink:href="#q"/><use transform="matrix(0.01085069444444444,0,0,0.01085069444444444,49.94574652777776,0)" xlink:href="#u"/><use transform="matrix(0.01085069444444444,0,0,0.01085069444444444,62.6519097222222,0)" xlink:href="#v"/><use transform="matrix(0.01085069444444444,0,0,0.01085069444444444,75.35807291666664,0)" xlink:href="#v"/><use transform="matrix(0.01085069444444444,0,0,0.01085069444444444,88.06423611111109,0)" xlink:href="#q"/><use transform="matrix(0.01085069444444444,0,0,0.01085069444444444,93.9778645833333,0)" xlink:href="#u"/><use transform="matrix(0.01085069444444444,0,0,0.01085069444444444,106.68402777777774,0)" xlink:href="#v"/><use transform="matrix(0.01085069444444444,0,0,0.01085069444444444,119.39019097222219,0)" xlink:href="#v"/></g><g id="i"><use transform="matrix(0.014105902777777775,0,0,0.014105902777777775,0,0)" xlink:href="#o"/><use transform="matrix(0.014105902777777775,0,0,0.014105902777777775,16.518012152777775,0)" xlink:href="#p"/><use transform="matrix(0.014105902777777775,0,0,0.014105902777777775,33.03602430555555,0)" xlink:href="#q"/><use transform="matrix(0.014105902777777775,0,0,0.014105902777777775,40.723741319444436,0)" xlink:href="#p"/><use transform="matrix(0.014105902777777775,0,0,0.014105902777777775,57.241753472222214,0)" xlink:href="#q"/><use transform="matrix(0.014105902777777775,0,0,0.014105902777777775,64.9294704861111,0)" xlink:href="#p"/><use transform="matrix(0.014105902777777775,0,0,0.014105902777777775,81.44748263888887,0)" xlink:href="#q"/><use transform="matrix(0.014105902777777775,0,0,0.014105902777777775,89.13519965277776,0)" xlink:href="#p"/><use transform="matrix(0.014105902777777775,0,0,0.014105902777777775,105.65321180555553,0)" xlink:href="#r"/><use transform="matrix(0.014105902777777775,0,0,0.014105902777777775,116.26085069444441,0)" xlink:href="#u"/><use transform="matrix(0.014105902777777775,0,0,0.014105902777777775,132.7788628472222,0)" xlink:href="#w"/><path fill="#3a414a" d="M-1.44 1.45h152.2V2.9H-1.45z"/></g><g id="j"><use transform="matrix(0.01085069444444444,0,0,0.01085069444444444,0,0)" xlink:href="#o"/><use transform="matrix(0.01085069444444444,0,0,0.01085069444444444,12.70616319444444,0)" xlink:href="#p"/><use transform="matrix(0.01085069444444444,0,0,0.01085069444444444,25.41232638888888,0)" xlink:href="#q"/><use transform="matrix(0.01085069444444444,0,0,0.01085069444444444,31.3259548611111,0)" xlink:href="#p"/><use transform="matrix(0.01085069444444444,0,0,0.01085069444444444,44.03211805555554,0)" xlink:href="#q"/><use transform="matrix(0.01085069444444444,0,0,0.01085069444444444,49.94574652777776,0)" xlink:href="#p"/><use transform="matrix(0.01085069444444444,0,0,0.01085069444444444,62.6519097222222,0)" xlink:href="#q"/><use transform="matrix(0.01085069444444444,0,0,0.01085069444444444,68.56553819444441,0)" xlink:href="#p"/></g><g id="k"><use transform="matrix(0.01085069444444444,0,0,0.01085069444444444,0,0)" xlink:href="#o"/><use transform="matrix(0.01085069444444444,0,0,0.01085069444444444,12.70616319444444,0)" xlink:href="#p"/><use transform="matrix(0.01085069444444444,0,0,0.01085069444444444,25.41232638888888,0)" xlink:href="#q"/><use transform="matrix(0.01085069444444444,0,0,0.01085069444444444,31.3259548611111,0)" xlink:href="#p"/><use transform="matrix(0.01085069444444444,0,0,0.01085069444444444,44.03211805555554,0)" xlink:href="#q"/><use transform="matrix(0.01085069444444444,0,0,0.01085069444444444,49.94574652777776,0)" xlink:href="#p"/><use transform="matrix(0.01085069444444444,0,0,0.01085069444444444,62.6519097222222,0)" xlink:href="#q"/><use transform="matrix(0.01085069444444444,0,0,0.01085069444444444,68.56553819444441,0)" xlink:href="#t"/><use transform="matrix(0.01085069444444444,0,0,0.01085069444444444,81.27170138888886,0)" xlink:href="#v"/></g><g id="l"><use transform="matrix(0.01085069444444444,0,0,0.01085069444444444,0,0)" xlink:href="#o"/><use transform="matrix(0.01085069444444444,0,0,0.01085069444444444,12.70616319444444,0)" xlink:href="#p"/><use transform="matrix(0.01085069444444444,0,0,0.01085069444444444,25.41232638888888,0)" xlink:href="#q"/><use transform="matrix(0.01085069444444444,0,0,0.01085069444444444,31.3259548611111,0)" xlink:href="#p"/><use transform="matrix(0.01085069444444444,0,0,0.01085069444444444,44.03211805555554,0)" xlink:href="#q"/><use transform="matrix(0.01085069444444444,0,0,0.01085069444444444,49.94574652777776,0)" xlink:href="#p"/><use transform="matrix(0.01085069444444444,0,0,0.01085069444444444,62.6519097222222,0)" xlink:href="#q"/><use transform="matrix(0.01085069444444444,0,0,0.01085069444444444,68.56553819444441,0)" xlink:href="#u"/><use transform="matrix(0.01085069444444444,0,0,0.01085069444444444,81.27170138888886,0)" xlink:href="#v"/><use transform="matrix(0.01085069444444444,0,0,0.01085069444444444,93.9778645833333,0)" xlink:href="#v"/></g><path fill="#3a414a" d="M1133-1128c-95-42-202-97-328-97-258 0-367 218-367 498 0 326 122 489 367 489 103 0 227-26 373-77v260C1058-5 924 20 776 20c-443 0-662-290-657-749 5-455 236-754 686-754 142 0 285 34 428 103" id="y"/><path fill="#3a414a" d="M184 0v-1462h310V0H184" id="z"/><path fill="#3a414a" d="M643-1462c464-5 754 260 754 717 0 491-297 749-799 745H184v-1462h459zm432 725c0-314-139-471-416-471H494v952h133c299 0 448-160 448-481" id="A"/><path fill="#3a414a" d="M881-1016c0-191-181-195-387-192v395c210 7 387-9 387-203zm313-8c0 197-121 322-272 387 220 329 363 541 430 637h-344L659-561H494V0H184v-1462h426c360 1 584 108 584 438" id="B"/><g id="m"><use transform="matrix(0.022786458333333322,0,0,0.022786458333333322,0,0)" xlink:href="#y"/><use transform="matrix(0.022786458333333322,0,0,0.022786458333333322,29.736328124999986,0)" xlink:href="#z"/><use transform="matrix(0.022786458333333322,0,0,0.022786458333333322,45.18554687499998,0)" xlink:href="#A"/><use transform="matrix(0.022786458333333322,0,0,0.022786458333333322,79.72981770833329,0)" xlink:href="#B"/></g><path fill="#3a414a" d="M1079 0L973-348H440L334 0H0l516-1468h379L1413 0h-334zM899-608c-127-415-146-457-192-633-22 85-85 296-189 633h381" id="C"/><path fill="#3a414a" d="M1481 0h-394L451-1106h-9c33 431 14 683 19 1106H184v-1462h391l635 1095h7c-26-429-11-678-15-1095h279V0" id="D"/><path fill="#3a414a" d="M438-727c0 290 111 485 381 489 65 0 130-7 197-20v-305H739v-258h580v758c-169 55-315 82-520 83-455 2-680-287-680-753 0-470 293-750 764-750 150 0 295 30 434 90l-103 248c-107-53-218-80-333-80-276-2-443 212-443 498" id="E"/><path fill="#3a414a" d="M1026 0H184v-1462h842v254H494v321h495v254H494v377h532V0" id="F"/><path fill="#3a414a" d="M596-1225c-134-8-223 103-163 219 11 21 33 41 61 60s93 53 196 102c137 65 230 130 281 196s76 147 76 242c-3 286-231 426-539 426C352 20 214-9 94-68v-288c159 68 260 115 438 120 123 3 211-41 211-155 0-73-44-105-95-141-63-46-329-160-390-220-78-77-147-167-147-315 0-273 208-420 495-416 177 2 298 46 434 103l-100 241c-131-51-199-78-344-86" id="G"/><g id="n"><use transform="matrix(0.022786458333333322,0,0,0.022786458333333322,0,0)" xlink:href="#B"/><use transform="matrix(0.022786458333333322,0,0,0.022786458333333322,30.80729166666665,0)" xlink:href="#C"/><use transform="matrix(0.022786458333333322,0,0,0.022786458333333322,63.004557291666636,0)" xlink:href="#D"/><use transform="matrix(0.022786458333333322,0,0,0.022786458333333322,100.94401041666661,0)" xlink:href="#E"/><use transform="matrix(0.022786458333333322,0,0,0.022786458333333322,134.73632812499994,0)" xlink:href="#F"/><use transform="matrix(0.022786458333333322,0,0,0.022786458333333322,160.87239583333326,0)" xlink:href="#G"/></g></defs></g></svg>