<svg xmlns="http://www.w3.org/2000/svg" xmlns:xlink="http://www.w3.org/1999/xlink" xmlns:lucid="lucid" width="1682.39" height="647.67"><g transform="translate(380 -99)" lucid:page-tab-id="JvB1B67LGo5B"><g class="lucid-layer" lucid:layer-id="jRB1Zt~34j5E" display="block"><path d="M-350 226a6 6 0 0 1 6-6h248a6 6 0 0 1 6 6v27.9a6 6 0 0 1-6 6h-248a6 6 0 0 1-6-6z" fill="none"/><use xlink:href="#a" transform="matrix(1,0,0,1,-350,220) translate(55.07499999999999 23.6)"/><use xlink:href="#b" transform="matrix(1,0,0,1,-350,220) translate(86.02499999999999 23.6)"/><use xlink:href="#c" transform="matrix(1,0,0,1,-350,220) translate(125.975 23.6)"/><use xlink:href="#d" transform="matrix(1,0,0,1,-350,220) translate(169.925 23.6)"/></g><g class="lucid-layer" lucid:layer-id="LvB1lsdaZk3C" display="block"><path d="M655.85 288.2H623.9v-.94h31.95zm173.8 0h-16.07v-.94h16.07z" stroke="#3a414a" stroke-width=".05" fill="#3a414a"/><path d="M623.9 288.2h-.5v-.94h.5z" fill="#3a414a"/><path stroke="#3a414a" stroke-width=".05" fill="#3a414a"/><path d="M844.4 287.73l-14.25 4.64v-9.27z" fill="#3a414a"/><path d="M845.95 287.73l-16.28 5.3v-10.6zm-15.33 3.98l12.25-3.97-12.25-3.98z" stroke="#3a414a" stroke-width=".05" fill="#3a414a"/><use xlink:href="#e" transform="matrix(1,0,0,1,655.8481665930069,277.0651223635053) translate(0 14.222222222222223)"/><use xlink:href="#f" transform="matrix(1,0,0,1,655.8481665930069,277.0651223635053) translate(47.25925925925927 14.222222222222223)"/><use xlink:href="#g" transform="matrix(1,0,0,1,655.8481665930069,277.0651223635053) translate(120.24691358024694 14.222222222222223)"/></g><g class="lucid-layer" lucid:layer-id="eyB12vZFVhDU" display="block"><path d="M288.22 287.14H223.9v-.95h64.32zm156.8 0h-48.45v-.95H445z" stroke="#3a414a" stroke-width=".05" fill="#3a414a"/><path d="M223.9 287.14h-.52l.02-.47-.02-.48h.53z" fill="#3a414a"/><path stroke="#3a414a" stroke-width=".05" fill="#3a414a"/><path d="M459.78 286.67l-14.27 4.63v-9.27z" fill="#3a414a"/><path d="M461.3 286.67l-16.26 5.3v-10.6zm-15.3 3.98l12.24-3.98-12.25-4z" stroke="#3a414a" stroke-width=".05" fill="#3a414a"/><use xlink:href="#h" transform="matrix(1,0,0,1,288.22223874173926,265.3333333333334) translate(0 14.222222222222223)"/><use xlink:href="#i" transform="matrix(1,0,0,1,288.22223874173926,265.3333333333334) translate(34.567901234567906 14.222222222222223)"/><use xlink:href="#j" transform="matrix(1,0,0,1,288.22223874173926,265.3333333333334) translate(0 35.55555555555556)"/><use xlink:href="#k" transform="matrix(1,0,0,1,288.22223874173926,265.3333333333334) translate(23.703703703703706 35.55555555555556)"/><use xlink:href="#l" transform="matrix(1,0,0,1,288.22223874173926,265.3333333333334) translate(92.59259259259261 35.55555555555556)"/></g><g class="lucid-layer" lucid:layer-id="zJB158nq9._s" display="block"><path d="M-360 126a6 6 0 0 1 6-6h268a6 6 0 0 1 6 6v88a6 6 0 0 1-6 6h-268a6 6 0 0 1-6-6z" fill="none"/><use xlink:href="#m" transform="matrix(1,0,0,1,-360,120) translate(102.0246913580247 14.222222222222221)"/><use xlink:href="#n" transform="matrix(1,0,0,1,-360,120) translate(164.19753086419752 14.222222222222221)"/><use xlink:href="#o" transform="matrix(1,0,0,1,-360,120) translate(72.39506172839506 35.55555555555556)"/><use xlink:href="#p" transform="matrix(1,0,0,1,-360,120) translate(98.96296296296296 35.55555555555556)"/><use xlink:href="#q" transform="matrix(1,0,0,1,-360,120) translate(159.20987654320987 35.55555555555556)"/><use xlink:href="#r" transform="matrix(1,0,0,1,-360,120) translate(85.7283950617284 56.888888888888886)"/><use xlink:href="#q" transform="matrix(1,0,0,1,-360,120) translate(145.87654320987653 56.888888888888886)"/><use xlink:href="#s" transform="matrix(1,0,0,1,-360,120) translate(20.148148148148167 78.22222222222223)"/><use xlink:href="#t" transform="matrix(1,0,0,1,-360,120) translate(50.71604938271606 78.22222222222223)"/><use xlink:href="#u" transform="matrix(1,0,0,1,-360,120) translate(90.17283950617285 78.22222222222223)"/><use xlink:href="#v" transform="matrix(1,0,0,1,-360,120) translate(128.64197530864197 78.22222222222223)"/><use xlink:href="#w" transform="matrix(1,0,0,1,-360,120) translate(168.14814814814815 78.22222222222223)"/><use xlink:href="#x" transform="matrix(1,0,0,1,-360,120) translate(231.3086419753086 78.22222222222223)"/><use xlink:href="#y" transform="matrix(1,0,0,1,-360,120) translate(140 99.55555555555554)"/></g><g class="lucid-layer" lucid:layer-id="LvB1FmTkZOMJ" display="block"><path d="M-130.2 287.1h-84.75v-.96h84.74zm175.2 0h-68.84v-.96H45z" stroke="#3a414a" stroke-width=".05" fill="#3a414a"/><path fill="#3a414a"/><path stroke="#3a414a" stroke-width=".05" fill="#3a414a"/><path d="M59.78 286.6l-14.27 4.65v-9.27z" fill="#3a414a"/><path d="M61.3 286.6l-16.26 5.3v-10.57zm-15.3 4l12.24-4L46 282.64z" stroke="#3a414a" stroke-width=".05" fill="#3a414a"/><use xlink:href="#z" transform="matrix(1,0,0,1,-130.21199949992916,275.94805194805195) translate(0 14.222222222222223)"/><use xlink:href="#A" transform="matrix(1,0,0,1,-130.21199949992916,275.94805194805195) translate(31.506172839506178 14.222222222222223)"/><use xlink:href="#B" transform="matrix(1,0,0,1,-130.21199949992916,275.94805194805195) translate(73.92592592592594 14.222222222222223)"/></g><g class="lucid-layer" lucid:layer-id="LvB1xVc2Uexm" display="block"><path d="M462.4 232.62a6 6 0 0 1 6-6h148a6 6 0 0 1 6 6v108a6 6 0 0 1-6 6h-148a6 6 0 0 1-6-6z" stroke="#282c33" stroke-width="2" fill="#fff"/><use xlink:href="#C" transform="matrix(1,0,0,1,474.39475308641977,238.61471861471864) translate(16.17283950617285 50.22222222222222)"/><use xlink:href="#D" transform="matrix(1,0,0,1,474.39475308641977,238.61471861471864) translate(50.69135802469136 50.22222222222222)"/></g><g class="lucid-layer" lucid:layer-id="LvB1MoiKRmW~" display="block"><path d="M248.78 502.7h-4.88v-.96h4.88zm14.66 0h-9.77v-.96h9.77zm14.65 0h-9.78v-.96h9.77zm14.65 0h-9.77v-.96h9.77zm14.66 0h-9.76v-.96h9.77zm14.66 0h-9.77v-.96h9.76zm14.66 0h-9.77v-.96h9.77zm14.66 0h-9.77v-.96h9.78zm14.65 0h-9.77v-.96h9.77zm14.66 0h-9.78v-.96h9.77zm14.65 0h-9.77v-.96h9.77zm14.65 0h-9.77v-.96H410zm14.66 0h-9.77v-.96h9.76zm5.1 0h-.2v-.96h.2zm200.14-.06h-9.77v-.95h9.77zm14.66 0h-9.77v-.95h9.76zm14.65 0h-9.76v-.95h9.77zm14.67 0h-9.77v-.95h9.77zm14.66 0h-9.77v-.95h9.77zm14.65 0h-9.77v-.95h9.78zm14.66 0h-9.77v-.95h9.77zm14.66 0h-9.77v-.95h9.77zm14.65 0h-9.77v-.95h9.77zm14.66 0h-9.76v-.95h9.77zm14.67 0h-9.77v-.95h9.77zm14.65 0h-9.77v-.95h9.77zm9.77 0H796v-.95h4.9zm-185.66 0h-.2v-.95h.2zM243.9 502.7h-.5v-.96h.5z" stroke="#3a414a" stroke-width=".05" fill="#3a414a"/><path d="M801.4 502.64h-.52v-.95h.5z" stroke="#3a414a" stroke-width=".05" fill="#3a414a"/><use xlink:href="#E" transform="matrix(1,0,0,1,429.7527828027766,480.8558323219584) translate(47.88154320987654 14.222222222222223)"/><use xlink:href="#F" transform="matrix(1,0,0,1,429.7527828027766,480.8558323219584) translate(119.68401234567902 14.222222222222223)"/><use xlink:href="#G" transform="matrix(1,0,0,1,429.7527828027766,480.8558323219584) translate(0.0049999999999954525 35.55555555555556)"/><use xlink:href="#H" transform="matrix(1,0,0,1,429.7527828027766,480.8558323219584) translate(82.77043209876544 35.55555555555556)"/><use xlink:href="#I" transform="matrix(1,0,0,1,429.7527828027766,480.8558323219584) translate(134.0296913580247 35.55555555555556)"/></g><g class="lucid-layer" lucid:layer-id="LvB1P3QAYwUe" display="block"><path d="M1042.4 672.67a6 6 0 0 1 6-6h228a6 6 0 0 1 6 6v48a6 6 0 0 1-6 6h-228a6 6 0 0 1-6-6z" fill="none"/><use xlink:href="#J" transform="matrix(1,0,0,1,1042.3947530864198,666.6666666666667) translate(22.790123456790155 14.222222222222221)"/><use xlink:href="#K" transform="matrix(1,0,0,1,1042.3947530864198,666.6666666666667) translate(109.70370370370371 14.222222222222221)"/><use xlink:href="#L" transform="matrix(1,0,0,1,1042.3947530864198,666.6666666666667) translate(129.45679012345678 14.222222222222221)"/><use xlink:href="#M" transform="matrix(1,0,0,1,1042.3947530864198,666.6666666666667) translate(152.07407407407405 14.222222222222221)"/><use xlink:href="#N" transform="matrix(1,0,0,1,1042.3947530864198,666.6666666666667) translate(182.64197530864195 14.222222222222221)"/><use xlink:href="#O" transform="matrix(1,0,0,1,1042.3947530864198,666.6666666666667) translate(2.1234567901234698 35.55555555555556)"/><use xlink:href="#P" transform="matrix(1,0,0,1,1042.3947530864198,666.6666666666667) translate(54.41975308641975 35.55555555555556)"/><use xlink:href="#M" transform="matrix(1,0,0,1,1042.3947530864198,666.6666666666667) translate(104.64197530864196 35.55555555555556)"/><use xlink:href="#Q" transform="matrix(1,0,0,1,1042.3947530864198,666.6666666666667) translate(135.20987654320984 35.55555555555556)"/><use xlink:href="#R" transform="matrix(1,0,0,1,1042.3947530864198,666.6666666666667) translate(164.7901234567901 35.55555555555556)"/><path d="M1003.9 533.52h159.46a6 6 0 0 1 6 6v126.65" stroke="#3a414a" fill="none"/><path d="M1003.9 534h-.5v-.95h.5zM1169.84 666.67h-.95l-.02-.52h.95z" stroke="#3a414a" stroke-width=".05" fill="#3a414a"/></g><g class="lucid-layer" lucid:layer-id="LvB1xO3kDR7y" display="block"><path d="M802.4 452.67a6 6 0 0 1 6-6h188a6 6 0 0 1 6 6v90a6 6 0 0 1-6 6h-188a6 6 0 0 1-6-6z" fill="#fff"/><path d="M802.4 452.67a6 6 0 0 1 6-6h188a6 6 0 0 1 6 6v90a6 6 0 0 1-6 6h-188a6 6 0 0 1-6-6zM802.4 486.67h200" stroke="#282c33" stroke-width="2" fill="none"/><use xlink:href="#C" transform="matrix(1,0,0,1,812.3947530864198,446.66666666666674) translate(30.37037037037038 23.555555555555557)"/><use xlink:href="#S" transform="matrix(1,0,0,1,812.3947530864198,446.66666666666674) translate(64.88888888888889 23.555555555555557)"/><use xlink:href="#T" transform="matrix(1,0,0,1,812.3947530864198,446.66666666666674) translate(107.25925925925927 23.555555555555557)"/><use xlink:href="#U" transform="matrix(1,0,0,1,807.3947530864198,489.16666666666674) translate(0 16.555555555555557)"/><use xlink:href="#V" transform="matrix(1,0,0,1,807.3947530864198,489.16666666666674) translate(34.56790123456789 16.555555555555557)"/><use xlink:href="#W" transform="matrix(1,0,0,1,807.3947530864198,489.16666666666674) translate(108.54320987654319 16.555555555555557)"/><g><use xlink:href="#X" transform="matrix(1,0,0,1,807.3947530864198,520.1666666666667) translate(0 16.555555555555557)"/></g><path d="M902.4 347.98v97.2M902.4 348v-.52" stroke="#3a414a" fill="none"/><path d="M902.87 445.67h-.95v-.52h.95z" stroke="#3a414a" stroke-width=".05" fill="#3a414a"/></g><g class="lucid-layer" lucid:layer-id="LvB1snhOH2-o" display="block"><path d="M967.03 334.67c0 6.62-26.86 12-60 12s-60-5.38-60-12v-96c0-6.63 26.86-12 60-12s60 5.37 60 12z" stroke="#282c33" stroke-width="2" fill="#fff"/><path d="M967.03 238.67c0 6.62-26.86 12-60 12s-60-5.38-60-12" stroke="#282c33" stroke-width="2" fill="none"/><use xlink:href="#C" transform="matrix(1,0,0,1,852.0300241269974,255.66666666666674) translate(19.024691358024697 35.72222222222222)"/><use xlink:href="#Y" transform="matrix(1,0,0,1,852.0300241269974,255.66666666666674) translate(53.54320987654321 35.72222222222222)"/><use xlink:href="#Z" transform="matrix(1,0,0,1,852.0300241269974,255.66666666666674) translate(17 57.05555555555555)"/></g><g class="lucid-layer" lucid:layer-id="LvB1OkKUb_fR" display="block"><path d="M42.4 452.67a6 6 0 0 1 6-6h188a6 6 0 0 1 6 6v90a6 6 0 0 1-6 6h-188a6 6 0 0 1-6-6z" fill="#fff"/><path d="M42.4 452.67a6 6 0 0 1 6-6h188a6 6 0 0 1 6 6v90a6 6 0 0 1-6 6h-188a6 6 0 0 1-6-6zM42.4 486.67h200" stroke="#282c33" stroke-width="2" fill="none"/><use xlink:href="#aa" transform="matrix(1,0,0,1,52.39475308641977,446.66666666666674) translate(15.530864197530875 23.555555555555557)"/><use xlink:href="#S" transform="matrix(1,0,0,1,52.39475308641977,446.66666666666674) translate(92.46913580246913 23.555555555555557)"/><use xlink:href="#ab" transform="matrix(1,0,0,1,52.39475308641977,446.66666666666674) translate(134.8395061728395 23.555555555555557)"/><use xlink:href="#ac" transform="matrix(1,0,0,1,47.39475308641977,489.16666666666674) translate(0 16.555555555555557)"/><use xlink:href="#ad" transform="matrix(1,0,0,1,47.39475308641977,520.1666666666667) translate(0 16.555555555555557)"/><path d="M135.7 348.17v97" stroke="#3a414a" fill="none"/><path d="M136.18 348.18h-.95v-.5h.95zM136.18 445.67h-.95v-.52h.95z" stroke="#3a414a" stroke-width=".05" fill="#3a414a"/></g><g class="lucid-layer" lucid:layer-id="LvB1UDmMFHEC" display="block"><path d="M206.4 226.67c8.83 0 16 26.86 16 60 0 33.13-7.17 60-16 60h-128c-8.84 0-16-26.87-16-60 0-33.14 7.16-60 16-60z" stroke="#282c33" stroke-width="2" fill="#fff"/><path d="M206.4 346.67c-8.84 0-16-26.87-16-60 0-33.14 7.16-60 16-60" stroke="#282c33" stroke-width="2" fill="none"/><use xlink:href="#ae" transform="matrix(1,0,0,1,67.39475308641977,231.66666666666674) translate(7.246913580246925 48.59722222222222)"/><use xlink:href="#af" transform="matrix(1,0,0,1,67.39475308641977,231.66666666666674) translate(73.32098765432099 48.59722222222222)"/><use xlink:href="#ag" transform="matrix(1,0,0,1,67.39475308641977,231.66666666666674) translate(41.24691358024692 69.93055555555554)"/></g><g class="lucid-layer" lucid:layer-id="LvB1eytOsPwp" display="block"><path d="M-211.85 289.45c5.1 3.4 8.27 9.6 8.27 16.2 0 .5-.38.9-.85.9h-32.32c-.48 0-.85-.4-.85-.9 0-8.86 5.57-16.32 13.03-18.32-3.58-1.67-6.06-5.46-6.06-9.9 0-5.94 4.5-10.76 10.04-10.76 5.55 0 10.04 4.82 10.04 10.77 0 4.43-2.48 8.22-6.05 9.9 1.65.43 3.25 1.1 4.75 2.1zm-24.02 15.32h30.55c-.27-5.67-3.06-10.85-7.45-13.77-2.35-1.6-5.07-2.4-7.82-2.4-8.16 0-14.86 7.15-15.27 16.17zm6.94-27.33c0 4.95 3.74 8.94 8.34 8.94s8.34-4 8.34-8.94c0-4.95-3.74-8.98-8.33-8.98-4.6 0-8.33 4.03-8.33 8.98z" stroke="#000" stroke-opacity="0" fill="#242f3e"/><use xlink:href="#ah" transform="matrix(1,0,0,1,-267.60524691358023,315.56277056277065) translate(26.2104938271605 16.177777777777774)"/></g><defs><path d="M100-194c62-1 85 37 85 99 1 63-27 99-86 99S16-35 15-95c0-66 28-99 85-99zM99-20c44 1 53-31 53-75 0-43-8-75-51-75s-53 32-53 75 10 74 51 75" id="ai"/><path d="M84 4C-5 8 30-112 23-190h32v120c0 31 7 50 39 49 72-2 45-101 50-169h31l1 190h-30c-1-10 1-25-2-33-11 22-28 36-60 37" id="aj"/><path d="M114-163C36-179 61-72 57 0H25l-1-190h30c1 12-1 29 2 39 6-27 23-49 58-41v29" id="ak"/><g id="a"><use transform="matrix(0.05,0,0,0.05,0,0)" xlink:href="#ai"/><use transform="matrix(0.05,0,0,0.05,10,0)" xlink:href="#aj"/><use transform="matrix(0.05,0,0,0.05,20,0)" xlink:href="#ak"/></g><path d="M135-143c-3-34-86-38-87 0 15 53 115 12 119 90S17 21 10-45l28-5c4 36 97 45 98 0-10-56-113-15-118-90-4-57 82-63 122-42 12 7 21 19 24 35" id="al"/><path d="M100-194c63 0 86 42 84 106H49c0 40 14 67 53 68 26 1 43-12 49-29l28 8c-11 28-37 45-77 45C44 4 14-33 15-96c1-61 26-98 85-98zm52 81c6-60-76-77-97-28-3 7-6 17-6 28h103" id="am"/><g id="b"><use transform="matrix(0.05,0,0,0.05,0,0)" xlink:href="#aj"/><use transform="matrix(0.05,0,0,0.05,10,0)" xlink:href="#al"/><use transform="matrix(0.05,0,0,0.05,19,0)" xlink:href="#am"/><use transform="matrix(0.05,0,0,0.05,29,0)" xlink:href="#ak"/></g><path d="M59-47c-2 24 18 29 38 22v24C64 9 27 4 27-40v-127H5v-23h24l9-43h21v43h35v23H59v120" id="an"/><path d="M141-36C126-15 110 5 73 4 37 3 15-17 15-53c-1-64 63-63 125-63 3-35-9-54-41-54-24 1-41 7-42 31l-33-3c5-37 33-52 76-52 45 0 72 20 72 64v82c-1 20 7 32 28 27v20c-31 9-61-2-59-35zM48-53c0 20 12 33 32 33 41-3 63-29 60-74-43 2-92-5-92 41" id="ao"/><path d="M115-194c53 0 69 39 70 98 0 66-23 100-70 100C84 3 66-7 56-30L54 0H23l1-261h32v101c10-23 28-34 59-34zm-8 174c40 0 45-34 45-75 0-40-5-75-45-74-42 0-51 32-51 76 0 43 10 73 51 73" id="ap"/><path d="M24 0v-261h32V0H24" id="aq"/><g id="c"><use transform="matrix(0.05,0,0,0.05,0,0)" xlink:href="#an"/><use transform="matrix(0.05,0,0,0.05,5,0)" xlink:href="#ao"/><use transform="matrix(0.05,0,0,0.05,15,0)" xlink:href="#ap"/><use transform="matrix(0.05,0,0,0.05,25,0)" xlink:href="#aq"/><use transform="matrix(0.05,0,0,0.05,28.950000000000003,0)" xlink:href="#am"/></g><path d="M85-194c31 0 48 13 60 33l-1-100h32l1 261h-30c-2-10 0-23-3-31C134-8 116 4 85 4 32 4 16-35 15-94c0-66 23-100 70-100zm9 24c-40 0-46 34-46 75 0 40 6 74 45 74 42 0 51-32 51-76 0-42-9-74-50-73" id="ar"/><g id="d"><use transform="matrix(0.05,0,0,0.05,0,0)" xlink:href="#ar"/><use transform="matrix(0.05,0,0,0.05,10,0)" xlink:href="#ao"/><use transform="matrix(0.05,0,0,0.05,20,0)" xlink:href="#an"/><use transform="matrix(0.05,0,0,0.05,25,0)" xlink:href="#ao"/></g><path fill="#333" d="M121-226c-27-7-43 5-38 36h38v33H83V0H34v-157H6v-33h28c-9-59 32-81 87-68v32" id="as"/><path fill="#333" d="M185-48c-13 30-37 53-82 52C43 2 14-33 14-96s30-98 90-98c62 0 83 45 84 108H66c0 31 8 55 39 56 18 0 30-7 34-22zm-45-69c5-46-57-63-70-21-2 6-4 13-4 21h74" id="at"/><path fill="#333" d="M115-3C79 11 28 4 28-45v-112H4v-33h27l15-45h31v45h36v33H77v99c-1 23 16 31 38 25v30" id="au"/><path fill="#333" d="M190-63c-7 42-38 67-86 67-59 0-84-38-90-98-12-110 154-137 174-36l-49 2c-2-19-15-32-35-32-30 0-35 28-38 64-6 74 65 87 74 30" id="av"/><path fill="#333" d="M114-157C55-157 80-60 75 0H25v-261h50l-1 109c12-26 28-41 61-42 86-1 58 113 63 194h-50c-7-57 23-157-34-157" id="aw"/><g id="e"><use transform="matrix(0.04938271604938272,0,0,0.04938271604938272,0,0)" xlink:href="#as"/><use transform="matrix(0.04938271604938272,0,0,0.04938271604938272,5.8765432098765435,0)" xlink:href="#at"/><use transform="matrix(0.04938271604938272,0,0,0.04938271604938272,15.753086419753087,0)" xlink:href="#au"/><use transform="matrix(0.04938271604938272,0,0,0.04938271604938272,21.629629629629633,0)" xlink:href="#av"/><use transform="matrix(0.04938271604938272,0,0,0.04938271604938272,31.506172839506174,0)" xlink:href="#aw"/></g><path fill="#333" d="M135-150c-39-12-60 13-60 57V0H25l-1-190h47c2 13-1 29 3 40 6-28 27-53 61-41v41" id="ax"/><path fill="#333" d="M25 0v-261h50V0H25" id="ay"/><path fill="#333" d="M128 0H69L1-190h53L99-40l48-150h52" id="az"/><path fill="#333" d="M133-34C117-15 103 5 69 4 32 3 11-16 11-54c-1-60 55-63 116-61 1-26-3-47-28-47-18 1-26 9-28 27l-52-2c7-38 36-58 82-57s74 22 75 68l1 82c-1 14 12 18 25 15v27c-30 8-71 5-69-32zm-48 3c29 0 43-24 42-57-32 0-66-3-65 30 0 17 8 27 23 27" id="aA"/><path fill="#333" d="M135-194c87-1 58 113 63 194h-50c-7-57 23-157-34-157-59 0-34 97-39 157H25l-1-190h47c2 12-1 28 3 38 12-26 28-41 61-42" id="aB"/><g id="f"><use transform="matrix(0.04938271604938272,0,0,0.04938271604938272,0,0)" xlink:href="#ax"/><use transform="matrix(0.04938271604938272,0,0,0.04938271604938272,6.913580246913581,0)" xlink:href="#at"/><use transform="matrix(0.04938271604938272,0,0,0.04938271604938272,16.790123456790127,0)" xlink:href="#ay"/><use transform="matrix(0.04938271604938272,0,0,0.04938271604938272,21.7283950617284,0)" xlink:href="#at"/><use transform="matrix(0.04938271604938272,0,0,0.04938271604938272,31.60493827160494,0)" xlink:href="#az"/><use transform="matrix(0.04938271604938272,0,0,0.04938271604938272,41.48148148148149,0)" xlink:href="#aA"/><use transform="matrix(0.04938271604938272,0,0,0.04938271604938272,51.35802469135803,0)" xlink:href="#aB"/><use transform="matrix(0.04938271604938272,0,0,0.04938271604938272,62.17283950617284,0)" xlink:href="#au"/></g><path fill="#333" d="M85 4C-2 5 27-109 22-190h50c7 57-23 150 33 157 60-5 35-97 40-157h50l1 190h-47c-2-12 1-28-3-38-12 25-28 42-61 42" id="aC"/><path fill="#333" d="M137-138c1-29-70-34-71-4 15 46 118 7 119 86 1 83-164 76-172 9l43-7c4 19 20 25 44 25 33 8 57-30 24-41C81-84 22-81 20-136c-2-80 154-74 161-7" id="aD"/><g id="g"><use transform="matrix(0.04938271604938272,0,0,0.04938271604938272,0,0)" xlink:href="#aC"/><use transform="matrix(0.04938271604938272,0,0,0.04938271604938272,10.814814814814815,0)" xlink:href="#aD"/><use transform="matrix(0.04938271604938272,0,0,0.04938271604938272,20.69135802469136,0)" xlink:href="#at"/><use transform="matrix(0.04938271604938272,0,0,0.04938271604938272,30.567901234567906,0)" xlink:href="#ax"/></g><g id="h"><use transform="matrix(0.04938271604938272,0,0,0.04938271604938272,0,0)" xlink:href="#av"/><use transform="matrix(0.04938271604938272,0,0,0.04938271604938272,9.876543209876544,0)" xlink:href="#aA"/><use transform="matrix(0.04938271604938272,0,0,0.04938271604938272,19.75308641975309,0)" xlink:href="#ay"/><use transform="matrix(0.04938271604938272,0,0,0.04938271604938272,24.69135802469136,0)" xlink:href="#ay"/></g><path fill="#333" d="M135-194c52 0 70 43 70 98 0 56-19 99-73 100-30 1-46-15-58-35L72 0H24l1-261h50v104c11-23 29-37 60-37zM114-30c31 0 40-27 40-66 0-37-7-63-39-63s-41 28-41 65c0 36 8 64 40 64" id="aE"/><path fill="#333" d="M147 0L96-86 75-71V0H25v-261h50v150l67-79h53l-66 74L201 0h-54" id="aF"/><path fill="#333" d="M88-194c31-1 46 15 58 34l-1-101h50l1 261h-48c-2-10 0-23-3-31C134-8 116 4 84 4 32 4 16-41 15-95c0-56 19-97 73-99zm17 164c33 0 40-30 41-66 1-37-9-64-41-64s-38 30-39 65c0 43 13 65 39 65" id="aG"/><g id="i"><use transform="matrix(0.04938271604938272,0,0,0.04938271604938272,0,0)" xlink:href="#aE"/><use transform="matrix(0.04938271604938272,0,0,0.04938271604938272,10.814814814814815,0)" xlink:href="#aA"/><use transform="matrix(0.04938271604938272,0,0,0.04938271604938272,20.69135802469136,0)" xlink:href="#av"/><use transform="matrix(0.04938271604938272,0,0,0.04938271604938272,30.567901234567906,0)" xlink:href="#aF"/><use transform="matrix(0.04938271604938272,0,0,0.04938271604938272,40.44444444444445,0)" xlink:href="#at"/><use transform="matrix(0.04938271604938272,0,0,0.04938271604938272,50.320987654320994,0)" xlink:href="#aB"/><use transform="matrix(0.04938271604938272,0,0,0.04938271604938272,61.13580246913581,0)" xlink:href="#aG"/></g><path fill="#333" d="M231 0h-52l-39-155L100 0H48L-1-190h46L77-45c9-52 24-97 36-145h53l37 145 32-145h46" id="aH"/><path fill="#333" d="M4 7l51-268h42L46 7H4" id="aI"/><g id="j"><use transform="matrix(0.04938271604938272,0,0,0.04938271604938272,0,0)" xlink:href="#aH"/><use transform="matrix(0.04938271604938272,0,0,0.04938271604938272,13.827160493827162,0)" xlink:href="#aI"/></g><path fill="#333" d="M110-194c64 0 96 36 96 99 0 64-35 99-97 99-61 0-95-36-95-99 0-62 34-99 96-99zm-1 164c35 0 45-28 45-65 0-40-10-65-43-65-34 0-45 26-45 65 0 36 10 65 43 65" id="aJ"/><path fill="#333" d="M195-6C206 82 75 100 31 46c-4-6-6-13-8-21l49-6c3 16 16 24 34 25 40 0 42-37 40-79-11 22-30 35-61 35-53 0-70-43-70-97 0-56 18-96 73-97 30 0 46 14 59 34l2-30h47zm-90-29c32 0 41-27 41-63 0-35-9-62-40-62-32 0-39 29-40 63 0 36 9 62 39 62" id="aK"/><path fill="#333" d="M25-224v-37h50v37H25zM25 0v-190h50V0H25" id="aL"/><g id="k"><use transform="matrix(0.04938271604938272,0,0,0.04938271604938272,0,0)" xlink:href="#av"/><use transform="matrix(0.04938271604938272,0,0,0.04938271604938272,9.876543209876544,0)" xlink:href="#aJ"/><use transform="matrix(0.04938271604938272,0,0,0.04938271604938272,20.69135802469136,0)" xlink:href="#aK"/><use transform="matrix(0.04938271604938272,0,0,0.04938271604938272,31.506172839506174,0)" xlink:href="#aB"/><use transform="matrix(0.04938271604938272,0,0,0.04938271604938272,42.320987654320994,0)" xlink:href="#aL"/><use transform="matrix(0.04938271604938272,0,0,0.04938271604938272,47.25925925925927,0)" xlink:href="#au"/><use transform="matrix(0.04938271604938272,0,0,0.04938271604938272,53.135802469135804,0)" xlink:href="#aJ"/></g><g id="l"><use transform="matrix(0.04938271604938272,0,0,0.04938271604938272,0,0)" xlink:href="#aL"/><use transform="matrix(0.04938271604938272,0,0,0.04938271604938272,4.938271604938272,0)" xlink:href="#aG"/></g><path fill="#3a414a" d="M96-169c-40 0-48 33-48 73s9 75 48 75c24 0 41-14 43-38l32 2c-6 37-31 61-74 61-59 0-76-41-82-99-10-93 101-131 147-64 4 7 5 14 7 22l-32 3c-4-21-16-35-41-35" id="aM"/><path fill="#3a414a" d="M100-194c62-1 85 37 85 99 1 63-27 99-86 99S16-35 15-95c0-66 28-99 85-99zM99-20c44 1 53-31 53-75 0-43-8-75-51-75s-53 32-53 75 10 74 51 75" id="aN"/><path fill="#3a414a" d="M177-190C167-65 218 103 67 71c-23-6-38-20-44-43l32-5c15 47 100 32 89-28v-30C133-14 115 1 83 1 29 1 15-40 15-95c0-56 16-97 71-98 29-1 48 16 59 35 1-10 0-23 2-32h30zM94-22c36 0 50-32 50-73 0-42-14-75-50-75-39 0-46 34-46 75s6 73 46 73" id="aO"/><path fill="#3a414a" d="M117-194c89-4 53 116 60 194h-32v-121c0-31-8-49-39-48C34-167 62-67 57 0H25l-1-190h30c1 10-1 24 2 32 11-22 29-35 61-36" id="aP"/><path fill="#3a414a" d="M24-231v-30h32v30H24zM24 0v-190h32V0H24" id="aQ"/><path fill="#3a414a" d="M59-47c-2 24 18 29 38 22v24C64 9 27 4 27-40v-127H5v-23h24l9-43h21v43h35v23H59v120" id="aR"/><g id="m"><use transform="matrix(0.049382716049382706,0,0,0.049382716049382706,0,0)" xlink:href="#aM"/><use transform="matrix(0.049382716049382706,0,0,0.049382716049382706,8.888888888888888,0)" xlink:href="#aN"/><use transform="matrix(0.049382716049382706,0,0,0.049382716049382706,18.76543209876543,0)" xlink:href="#aO"/><use transform="matrix(0.049382716049382706,0,0,0.049382716049382706,28.64197530864197,0)" xlink:href="#aP"/><use transform="matrix(0.049382716049382706,0,0,0.049382716049382706,38.51851851851851,0)" xlink:href="#aQ"/><use transform="matrix(0.049382716049382706,0,0,0.049382716049382706,42.419753086419746,0)" xlink:href="#aR"/><use transform="matrix(0.049382716049382706,0,0,0.049382716049382706,47.35802469135802,0)" xlink:href="#aN"/></g><path fill="#3a414a" d="M85-194c31 0 48 13 60 33l-1-100h32l1 261h-30c-2-10 0-23-3-31C134-8 116 4 85 4 32 4 16-35 15-94c0-66 23-100 70-100zm9 24c-40 0-46 34-46 75 0 40 6 74 45 74 42 0 51-32 51-76 0-42-9-74-50-73" id="aS"/><g id="n"><use transform="matrix(0.049382716049382706,0,0,0.049382716049382706,0,0)" xlink:href="#aQ"/><use transform="matrix(0.049382716049382706,0,0,0.049382716049382706,3.9012345679012337,0)" xlink:href="#aS"/></g><path fill="#3a414a" d="M24-231v-30h32v30H24zM-9 49c24 4 33-6 33-30v-209h32V24c2 40-23 58-65 49V49" id="aT"/><path fill="#3a414a" d="M206 0h-36l-40-164L89 0H53L-1-190h32L70-26l43-164h34l41 164 42-164h31" id="aU"/><g id="o"><use transform="matrix(0.049382716049382706,0,0,0.049382716049382706,0,0)" xlink:href="#aT"/><use transform="matrix(0.049382716049382706,0,0,0.049382716049382706,3.9012345679012337,0)" xlink:href="#aU"/><use transform="matrix(0.049382716049382706,0,0,0.049382716049382706,16.691358024691354,0)" xlink:href="#aR"/></g><path fill="#3a414a" d="M141-36C126-15 110 5 73 4 37 3 15-17 15-53c-1-64 63-63 125-63 3-35-9-54-41-54-24 1-41 7-42 31l-33-3c5-37 33-52 76-52 45 0 72 20 72 64v82c-1 20 7 32 28 27v20c-31 9-61-2-59-35zM48-53c0 20 12 33 32 33 41-3 63-29 60-74-43 2-92-5-92 41" id="aV"/><path fill="#3a414a" d="M100-194c63 0 86 42 84 106H49c0 40 14 67 53 68 26 1 43-12 49-29l28 8c-11 28-37 45-77 45C44 4 14-33 15-96c1-61 26-98 85-98zm52 81c6-60-76-77-97-28-3 7-6 17-6 28h103" id="aW"/><path fill="#3a414a" d="M135-143c-3-34-86-38-87 0 15 53 115 12 119 90S17 21 10-45l28-5c4 36 97 45 98 0-10-56-113-15-118-90-4-57 82-63 122-42 12 7 21 19 24 35" id="aX"/><g id="p"><use transform="matrix(0.049382716049382706,0,0,0.049382716049382706,0,0)" xlink:href="#aV"/><use transform="matrix(0.049382716049382706,0,0,0.049382716049382706,9.87654320987654,0)" xlink:href="#aM"/><use transform="matrix(0.049382716049382706,0,0,0.049382716049382706,18.76543209876543,0)" xlink:href="#aM"/><use transform="matrix(0.049382716049382706,0,0,0.049382716049382706,27.654320987654316,0)" xlink:href="#aW"/><use transform="matrix(0.049382716049382706,0,0,0.049382716049382706,37.53086419753086,0)" xlink:href="#aX"/><use transform="matrix(0.049382716049382706,0,0,0.049382716049382706,46.419753086419746,0)" xlink:href="#aX"/></g><path fill="#3a414a" d="M143 0L79-87 56-68V0H24v-261h32v163l83-92h37l-77 82L181 0h-38" id="aY"/><path fill="#3a414a" d="M68-38c1 34 0 65-14 84H32c9-13 17-26 17-46H33v-38h35" id="aZ"/><g id="q"><use transform="matrix(0.049382716049382706,0,0,0.049382716049382706,0,0)" xlink:href="#aR"/><use transform="matrix(0.049382716049382706,0,0,0.049382716049382706,4.93827160493827,0)" xlink:href="#aN"/><use transform="matrix(0.049382716049382706,0,0,0.049382716049382706,14.814814814814811,0)" xlink:href="#aY"/><use transform="matrix(0.049382716049382706,0,0,0.049382716049382706,23.7037037037037,0)" xlink:href="#aW"/><use transform="matrix(0.049382716049382706,0,0,0.049382716049382706,33.58024691358024,0)" xlink:href="#aP"/><use transform="matrix(0.049382716049382706,0,0,0.049382716049382706,43.456790123456784,0)" xlink:href="#aZ"/></g><path fill="#3a414a" d="M114-163C36-179 61-72 57 0H25l-1-190h30c1 12-1 29 2 39 6-27 23-49 58-41v29" id="ba"/><path fill="#3a414a" d="M101-234c-31-9-42 10-38 44h38v23H63V0H32v-167H5v-23h27c-7-52 17-82 69-68v24" id="bb"/><path fill="#3a414a" d="M106-169C34-169 62-67 57 0H25v-261h32l-1 103c12-21 28-36 61-36 89 0 53 116 60 194h-32v-121c2-32-8-49-39-48" id="bc"/><g id="r"><use transform="matrix(0.049382716049382706,0,0,0.049382716049382706,0,0)" xlink:href="#ba"/><use transform="matrix(0.049382716049382706,0,0,0.049382716049382706,5.876543209876542,0)" xlink:href="#aW"/><use transform="matrix(0.049382716049382706,0,0,0.049382716049382706,15.75308641975308,0)" xlink:href="#bb"/><use transform="matrix(0.049382716049382706,0,0,0.049382716049382706,20.691358024691354,0)" xlink:href="#ba"/><use transform="matrix(0.049382716049382706,0,0,0.049382716049382706,26.567901234567895,0)" xlink:href="#aW"/><use transform="matrix(0.049382716049382706,0,0,0.049382716049382706,36.444444444444436,0)" xlink:href="#aX"/><use transform="matrix(0.049382716049382706,0,0,0.049382716049382706,45.33333333333332,0)" xlink:href="#bc"/></g><path fill="#3a414a" d="M84 4C-5 8 30-112 23-190h32v120c0 31 7 50 39 49 72-2 45-101 50-169h31l1 190h-30c-1-10 1-25-2-33-11 22-28 36-60 37" id="bd"/><g id="s"><use transform="matrix(0.049382716049382706,0,0,0.049382716049382706,0,0)" xlink:href="#aN"/><use transform="matrix(0.049382716049382706,0,0,0.049382716049382706,9.87654320987654,0)" xlink:href="#bd"/><use transform="matrix(0.049382716049382706,0,0,0.049382716049382706,19.75308641975308,0)" xlink:href="#ba"/></g><g id="t"><use transform="matrix(0.049382716049382706,0,0,0.049382716049382706,0,0)" xlink:href="#bd"/><use transform="matrix(0.049382716049382706,0,0,0.049382716049382706,9.87654320987654,0)" xlink:href="#aX"/><use transform="matrix(0.049382716049382706,0,0,0.049382716049382706,18.76543209876543,0)" xlink:href="#aW"/><use transform="matrix(0.049382716049382706,0,0,0.049382716049382706,28.64197530864197,0)" xlink:href="#ba"/></g><path fill="#3a414a" d="M115-194c55 1 70 41 70 98S169 2 115 4C84 4 66-9 55-30l1 105H24l-1-265h31l2 30c10-21 28-34 59-34zm-8 174c40 0 45-34 45-75s-6-73-45-74c-42 0-51 32-51 76 0 43 10 73 51 73" id="be"/><path fill="#3a414a" d="M24 0v-261h32V0H24" id="bf"/><g id="u"><use transform="matrix(0.049382716049382706,0,0,0.049382716049382706,0,0)" xlink:href="#be"/><use transform="matrix(0.049382716049382706,0,0,0.049382716049382706,9.87654320987654,0)" xlink:href="#aN"/><use transform="matrix(0.049382716049382706,0,0,0.049382716049382706,19.75308641975308,0)" xlink:href="#aN"/><use transform="matrix(0.049382716049382706,0,0,0.049382716049382706,29.629629629629623,0)" xlink:href="#bf"/></g><g id="v"><use transform="matrix(0.049382716049382706,0,0,0.049382716049382706,0,0)" xlink:href="#aS"/><use transform="matrix(0.049382716049382706,0,0,0.049382716049382706,9.87654320987654,0)" xlink:href="#aV"/><use transform="matrix(0.049382716049382706,0,0,0.049382716049382706,19.75308641975308,0)" xlink:href="#aR"/><use transform="matrix(0.049382716049382706,0,0,0.049382716049382706,24.691358024691354,0)" xlink:href="#aV"/></g><path fill="#3a414a" d="M87 75C49 33 22-17 22-94c0-76 28-126 65-167h31c-38 41-64 92-64 168S80 34 118 75H87" id="bg"/><path fill="#3a414a" d="M141 0L90-78 38 0H4l68-98-65-92h35l48 74 47-74h35l-64 92 68 98h-35" id="bh"/><g id="w"><use transform="matrix(0.049382716049382706,0,0,0.049382716049382706,0,0)" xlink:href="#bg"/><use transform="matrix(0.049382716049382706,0,0,0.049382716049382706,5.876543209876542,0)" xlink:href="#aW"/><use transform="matrix(0.049382716049382706,0,0,0.049382716049382706,15.75308641975308,0)" xlink:href="#bh"/><use transform="matrix(0.049382716049382706,0,0,0.049382716049382706,24.641975308641968,0)" xlink:href="#aM"/><use transform="matrix(0.049382716049382706,0,0,0.049382716049382706,33.53086419753085,0)" xlink:href="#aW"/><use transform="matrix(0.049382716049382706,0,0,0.049382716049382706,43.40740740740739,0)" xlink:href="#be"/><use transform="matrix(0.049382716049382706,0,0,0.049382716049382706,53.28395061728394,0)" xlink:href="#aR"/></g><path fill="#3a414a" d="M33-261c38 41 65 92 65 168S71 34 33 75H2C39 34 66-17 66-93S39-220 2-261h31" id="bi"/><g id="x"><use transform="matrix(0.049382716049382706,0,0,0.049382716049382706,0,0)" xlink:href="#be"/><use transform="matrix(0.049382716049382706,0,0,0.049382716049382706,9.87654320987654,0)" xlink:href="#aU"/><use transform="matrix(0.049382716049382706,0,0,0.049382716049382706,22.666666666666664,0)" xlink:href="#bi"/></g><g id="z"><use transform="matrix(0.04938271604938272,0,0,0.04938271604938272,0,0)" xlink:href="#aK"/><use transform="matrix(0.04938271604938272,0,0,0.04938271604938272,10.814814814814815,0)" xlink:href="#at"/><use transform="matrix(0.04938271604938272,0,0,0.04938271604938272,20.69135802469136,0)" xlink:href="#au"/></g><g id="A"><use transform="matrix(0.04938271604938272,0,0,0.04938271604938272,0,0)" xlink:href="#aC"/><use transform="matrix(0.04938271604938272,0,0,0.04938271604938272,10.814814814814815,0)" xlink:href="#aD"/><use transform="matrix(0.04938271604938272,0,0,0.04938271604938272,20.69135802469136,0)" xlink:href="#at"/><use transform="matrix(0.04938271604938272,0,0,0.04938271604938272,30.567901234567906,0)" xlink:href="#ax"/></g><g id="B"><use transform="matrix(0.04938271604938272,0,0,0.04938271604938272,0,0)" xlink:href="#aL"/><use transform="matrix(0.04938271604938272,0,0,0.04938271604938272,4.938271604938272,0)" xlink:href="#aB"/><use transform="matrix(0.04938271604938272,0,0,0.04938271604938272,15.753086419753087,0)" xlink:href="#as"/><use transform="matrix(0.04938271604938272,0,0,0.04938271604938272,21.62962962962963,0)" xlink:href="#aJ"/></g><path fill="#3a414a" d="M140-251c81 0 123 46 123 126C263-46 219 4 140 4 59 4 17-45 17-125s42-126 123-126zm0 227c63 0 89-41 89-101s-29-99-89-99c-61 0-89 39-89 99S79-25 140-24" id="bj"/><g id="C"><use transform="matrix(0.049382716049382706,0,0,0.049382716049382706,0,0)" xlink:href="#bj"/><use transform="matrix(0.049382716049382706,0,0,0.049382716049382706,13.827160493827158,0)" xlink:href="#bd"/><use transform="matrix(0.049382716049382706,0,0,0.049382716049382706,23.7037037037037,0)" xlink:href="#ba"/></g><path fill="#3a414a" d="M160-131c35 5 61 23 61 61C221 17 115-2 30 0v-248c76 3 177-17 177 60 0 33-19 50-47 57zm-97-11c50-1 110 9 110-42 0-47-63-36-110-37v79zm0 115c55-2 124 14 124-45 0-56-70-42-124-44v89" id="bk"/><g id="D"><use transform="matrix(0.049382716049382706,0,0,0.049382716049382706,0,0)" xlink:href="#bk"/><use transform="matrix(0.049382716049382706,0,0,0.049382716049382706,11.85185185185185,0)" xlink:href="#aV"/><use transform="matrix(0.049382716049382706,0,0,0.049382716049382706,21.728395061728392,0)" xlink:href="#aM"/><use transform="matrix(0.049382716049382706,0,0,0.049382716049382706,30.617283950617278,0)" xlink:href="#aY"/><use transform="matrix(0.049382716049382706,0,0,0.049382716049382706,39.50617283950616,0)" xlink:href="#aW"/><use transform="matrix(0.049382716049382706,0,0,0.049382716049382706,49.38271604938271,0)" xlink:href="#aP"/><use transform="matrix(0.049382716049382706,0,0,0.049382716049382706,59.259259259259245,0)" xlink:href="#aS"/></g><path fill="#333" d="M67-125c0 53 21 87 73 88 37 1 54-22 65-47l45 17C233-25 199 4 140 4 58 4 20-42 15-125 8-235 124-281 211-232c18 10 29 29 36 50l-46 12c-8-25-30-41-62-41-52 0-71 34-72 86" id="bl"/><g id="E"><use transform="matrix(0.04938271604938272,0,0,0.04938271604938272,0,0)" xlink:href="#bl"/><use transform="matrix(0.04938271604938272,0,0,0.04938271604938272,12.790123456790125,0)" xlink:href="#aJ"/><use transform="matrix(0.04938271604938272,0,0,0.04938271604938272,23.60493827160494,0)" xlink:href="#aK"/><use transform="matrix(0.04938271604938272,0,0,0.04938271604938272,34.41975308641975,0)" xlink:href="#aB"/><use transform="matrix(0.04938271604938272,0,0,0.04938271604938272,45.23456790123457,0)" xlink:href="#aL"/><use transform="matrix(0.04938271604938272,0,0,0.04938271604938272,50.17283950617284,0)" xlink:href="#au"/><use transform="matrix(0.04938271604938272,0,0,0.04938271604938272,56.04938271604939,0)" xlink:href="#aJ"/></g><path fill="#333" d="M24 0v-248h52V0H24" id="bm"/><path fill="#333" d="M24-248c120-7 223 5 221 122C244-46 201 0 124 0H24v-248zM76-40c74 7 117-18 117-86 0-67-45-88-117-82v168" id="bn"/><g id="F"><use transform="matrix(0.04938271604938272,0,0,0.04938271604938272,0,0)" xlink:href="#bm"/><use transform="matrix(0.04938271604938272,0,0,0.04938271604938272,4.938271604938272,0)" xlink:href="#bn"/></g><g id="G"><use transform="matrix(0.04938271604938272,0,0,0.04938271604938272,0,0)" xlink:href="#av"/><use transform="matrix(0.04938271604938272,0,0,0.04938271604938272,9.876543209876544,0)" xlink:href="#aJ"/><use transform="matrix(0.04938271604938272,0,0,0.04938271604938272,20.69135802469136,0)" xlink:href="#aB"/><use transform="matrix(0.04938271604938272,0,0,0.04938271604938272,31.506172839506174,0)" xlink:href="#aB"/><use transform="matrix(0.04938271604938272,0,0,0.04938271604938272,42.320987654320994,0)" xlink:href="#at"/><use transform="matrix(0.04938271604938272,0,0,0.04938271604938272,52.19753086419754,0)" xlink:href="#av"/><use transform="matrix(0.04938271604938272,0,0,0.04938271604938272,62.074074074074076,0)" xlink:href="#au"/><use transform="matrix(0.04938271604938272,0,0,0.04938271604938272,67.95061728395062,0)" xlink:href="#aD"/></g><g id="H"><use transform="matrix(0.04938271604938272,0,0,0.04938271604938272,0,0)" xlink:href="#au"/><use transform="matrix(0.04938271604938272,0,0,0.04938271604938272,5.8765432098765435,0)" xlink:href="#aw"/><use transform="matrix(0.04938271604938272,0,0,0.04938271604938272,16.691358024691358,0)" xlink:href="#at"/><use transform="matrix(0.04938271604938272,0,0,0.04938271604938272,26.567901234567902,0)" xlink:href="#aD"/><use transform="matrix(0.04938271604938272,0,0,0.04938271604938272,36.44444444444444,0)" xlink:href="#at"/></g><g id="I"><use transform="matrix(0.04938271604938272,0,0,0.04938271604938272,0,0)" xlink:href="#au"/><use transform="matrix(0.04938271604938272,0,0,0.04938271604938272,5.8765432098765435,0)" xlink:href="#aA"/><use transform="matrix(0.04938271604938272,0,0,0.04938271604938272,15.753086419753087,0)" xlink:href="#aE"/><use transform="matrix(0.04938271604938272,0,0,0.04938271604938272,26.567901234567902,0)" xlink:href="#ay"/><use transform="matrix(0.04938271604938272,0,0,0.04938271604938272,31.506172839506174,0)" xlink:href="#at"/><use transform="matrix(0.04938271604938272,0,0,0.04938271604938272,41.38271604938272,0)" xlink:href="#aD"/></g><g id="J"><use transform="matrix(0.049382716049382706,0,0,0.049382716049382706,0,0)" xlink:href="#aM"/><use transform="matrix(0.049382716049382706,0,0,0.049382716049382706,8.888888888888888,0)" xlink:href="#aN"/><use transform="matrix(0.049382716049382706,0,0,0.049382716049382706,18.76543209876543,0)" xlink:href="#aP"/><use transform="matrix(0.049382716049382706,0,0,0.049382716049382706,28.64197530864197,0)" xlink:href="#aP"/><use transform="matrix(0.049382716049382706,0,0,0.049382716049382706,38.51851851851851,0)" xlink:href="#aW"/><use transform="matrix(0.049382716049382706,0,0,0.049382716049382706,48.39506172839505,0)" xlink:href="#aM"/><use transform="matrix(0.049382716049382706,0,0,0.049382716049382706,57.28395061728394,0)" xlink:href="#aR"/><use transform="matrix(0.049382716049382706,0,0,0.049382716049382706,62.22222222222221,0)" xlink:href="#aW"/><use transform="matrix(0.049382716049382706,0,0,0.049382716049382706,72.09876543209874,0)" xlink:href="#aS"/></g><g id="K"><use transform="matrix(0.049382716049382706,0,0,0.049382716049382706,0,0)" xlink:href="#aR"/><use transform="matrix(0.049382716049382706,0,0,0.049382716049382706,4.93827160493827,0)" xlink:href="#aN"/></g><g id="L"><use transform="matrix(0.049382716049382706,0,0,0.049382716049382706,0,0)" xlink:href="#aV"/><use transform="matrix(0.049382716049382706,0,0,0.049382716049382706,9.87654320987654,0)" xlink:href="#bf"/><use transform="matrix(0.049382716049382706,0,0,0.049382716049382706,13.777777777777775,0)" xlink:href="#bf"/></g><g id="M"><use transform="matrix(0.049382716049382706,0,0,0.049382716049382706,0,0)" xlink:href="#aN"/><use transform="matrix(0.049382716049382706,0,0,0.049382716049382706,9.87654320987654,0)" xlink:href="#bd"/><use transform="matrix(0.049382716049382706,0,0,0.049382716049382706,19.75308641975308,0)" xlink:href="#ba"/></g><g id="N"><use transform="matrix(0.049382716049382706,0,0,0.049382716049382706,0,0)" xlink:href="#aS"/><use transform="matrix(0.049382716049382706,0,0,0.049382716049382706,9.87654320987654,0)" xlink:href="#aV"/><use transform="matrix(0.049382716049382706,0,0,0.049382716049382706,19.75308641975308,0)" xlink:href="#aR"/><use transform="matrix(0.049382716049382706,0,0,0.049382716049382706,24.691358024691354,0)" xlink:href="#aV"/></g><path fill="#3a414a" d="M115-194c53 0 69 39 70 98 0 66-23 100-70 100C84 3 66-7 56-30L54 0H23l1-261h32v101c10-23 28-34 59-34zm-8 174c40 0 45-34 45-75 0-40-5-75-45-74-42 0-51 32-51 76 0 43 10 73 51 73" id="bo"/><g id="O"><use transform="matrix(0.049382716049382706,0,0,0.049382716049382706,0,0)" xlink:href="#aR"/><use transform="matrix(0.049382716049382706,0,0,0.049382716049382706,4.93827160493827,0)" xlink:href="#aV"/><use transform="matrix(0.049382716049382706,0,0,0.049382716049382706,14.814814814814811,0)" xlink:href="#bo"/><use transform="matrix(0.049382716049382706,0,0,0.049382716049382706,24.691358024691354,0)" xlink:href="#bf"/><use transform="matrix(0.049382716049382706,0,0,0.049382716049382706,28.592592592592588,0)" xlink:href="#aW"/><use transform="matrix(0.049382716049382706,0,0,0.049382716049382706,38.469135802469125,0)" xlink:href="#aX"/></g><g id="P"><use transform="matrix(0.049382716049382706,0,0,0.049382716049382706,0,0)" xlink:href="#aU"/><use transform="matrix(0.049382716049382706,0,0,0.049382716049382706,12.790123456790122,0)" xlink:href="#aQ"/><use transform="matrix(0.049382716049382706,0,0,0.049382716049382706,16.691358024691354,0)" xlink:href="#aR"/><use transform="matrix(0.049382716049382706,0,0,0.049382716049382706,21.629629629629626,0)" xlink:href="#bc"/><use transform="matrix(0.049382716049382706,0,0,0.049382716049382706,31.506172839506167,0)" xlink:href="#aQ"/><use transform="matrix(0.049382716049382706,0,0,0.049382716049382706,35.4074074074074,0)" xlink:href="#aP"/></g><g id="Q"><use transform="matrix(0.049382716049382706,0,0,0.049382716049382706,0,0)" xlink:href="#ba"/><use transform="matrix(0.049382716049382706,0,0,0.049382716049382706,5.876543209876542,0)" xlink:href="#aS"/><use transform="matrix(0.049382716049382706,0,0,0.049382716049382706,15.75308641975308,0)" xlink:href="#aX"/></g><g id="R"><use transform="matrix(0.049382716049382706,0,0,0.049382716049382706,0,0)" xlink:href="#aS"/><use transform="matrix(0.049382716049382706,0,0,0.049382716049382706,9.87654320987654,0)" xlink:href="#aV"/><use transform="matrix(0.049382716049382706,0,0,0.049382716049382706,19.75308641975308,0)" xlink:href="#aR"/><use transform="matrix(0.049382716049382706,0,0,0.049382716049382706,24.691358024691354,0)" xlink:href="#aV"/><use transform="matrix(0.049382716049382706,0,0,0.049382716049382706,34.5679012345679,0)" xlink:href="#bo"/><use transform="matrix(0.049382716049382706,0,0,0.049382716049382706,44.44444444444444,0)" xlink:href="#aV"/><use transform="matrix(0.049382716049382706,0,0,0.049382716049382706,54.32098765432099,0)" xlink:href="#aX"/><use transform="matrix(0.049382716049382706,0,0,0.049382716049382706,63.20987654320987,0)" xlink:href="#aW"/></g><path fill="#3a414a" d="M232-93c-1 65-40 97-104 97C67 4 28-28 28-90v-158h33c8 89-33 224 67 224 102 0 64-133 71-224h33v155" id="bp"/><g id="S"><use transform="matrix(0.049382716049382706,0,0,0.049382716049382706,0,0)" xlink:href="#bp"/><use transform="matrix(0.049382716049382706,0,0,0.049382716049382706,12.790123456790122,0)" xlink:href="#aX"/><use transform="matrix(0.049382716049382706,0,0,0.049382716049382706,21.67901234567901,0)" xlink:href="#aW"/><use transform="matrix(0.049382716049382706,0,0,0.049382716049382706,31.55555555555555,0)" xlink:href="#ba"/></g><path fill="#3a414a" d="M127-220V0H93v-220H8v-28h204v28h-85" id="bq"/><g id="T"><use transform="matrix(0.049382716049382706,0,0,0.049382716049382706,0,0)" xlink:href="#bq"/><use transform="matrix(0.049382716049382706,0,0,0.049382716049382706,8.839506172839505,0)" xlink:href="#aV"/><use transform="matrix(0.049382716049382706,0,0,0.049382716049382706,18.716049382716044,0)" xlink:href="#bo"/><use transform="matrix(0.049382716049382706,0,0,0.049382716049382706,28.592592592592588,0)" xlink:href="#bf"/><use transform="matrix(0.049382716049382706,0,0,0.049382716049382706,32.493827160493815,0)" xlink:href="#aW"/></g><g id="U"><use transform="matrix(0.049382716049382706,0,0,0.049382716049382706,0,0)" xlink:href="#aP"/><use transform="matrix(0.049382716049382706,0,0,0.049382716049382706,9.87654320987654,0)" xlink:href="#aN"/><use transform="matrix(0.049382716049382706,0,0,0.049382716049382706,19.75308641975308,0)" xlink:href="#aP"/></g><path fill="#3a414a" d="M108 0H70L1-190h34L89-25l56-165h34" id="br"/><g id="V"><use transform="matrix(0.049382716049382706,0,0,0.049382716049382706,0,0)" xlink:href="#aX"/><use transform="matrix(0.049382716049382706,0,0,0.049382716049382706,8.888888888888888,0)" xlink:href="#aW"/><use transform="matrix(0.049382716049382706,0,0,0.049382716049382706,18.76543209876543,0)" xlink:href="#aP"/><use transform="matrix(0.049382716049382706,0,0,0.049382716049382706,28.64197530864197,0)" xlink:href="#aX"/><use transform="matrix(0.049382716049382706,0,0,0.049382716049382706,37.53086419753086,0)" xlink:href="#aQ"/><use transform="matrix(0.049382716049382706,0,0,0.049382716049382706,41.432098765432094,0)" xlink:href="#aR"/><use transform="matrix(0.049382716049382706,0,0,0.049382716049382706,46.37037037037037,0)" xlink:href="#aQ"/><use transform="matrix(0.049382716049382706,0,0,0.049382716049382706,50.2716049382716,0)" xlink:href="#br"/><use transform="matrix(0.049382716049382706,0,0,0.049382716049382706,59.16049382716048,0)" xlink:href="#aW"/></g><g id="W"><use transform="matrix(0.049382716049382706,0,0,0.049382716049382706,0,0)" xlink:href="#aQ"/><use transform="matrix(0.049382716049382706,0,0,0.049382716049382706,3.9012345679012337,0)" xlink:href="#aP"/><use transform="matrix(0.049382716049382706,0,0,0.049382716049382706,13.777777777777775,0)" xlink:href="#bb"/><use transform="matrix(0.049382716049382706,0,0,0.049382716049382706,18.716049382716044,0)" xlink:href="#aN"/></g><g id="X"><use transform="matrix(0.049382716049382706,0,0,0.049382716049382706,0,0)" xlink:href="#ba"/><use transform="matrix(0.049382716049382706,0,0,0.049382716049382706,5.876543209876542,0)" xlink:href="#aW"/><use transform="matrix(0.049382716049382706,0,0,0.049382716049382706,15.75308641975308,0)" xlink:href="#bf"/><use transform="matrix(0.049382716049382706,0,0,0.049382716049382706,19.654320987654316,0)" xlink:href="#aV"/><use transform="matrix(0.049382716049382706,0,0,0.049382716049382706,29.530864197530857,0)" xlink:href="#aR"/><use transform="matrix(0.049382716049382706,0,0,0.049382716049382706,34.469135802469125,0)" xlink:href="#aQ"/><use transform="matrix(0.049382716049382706,0,0,0.049382716049382706,38.37037037037036,0)" xlink:href="#aN"/><use transform="matrix(0.049382716049382706,0,0,0.049382716049382706,48.2469135802469,0)" xlink:href="#aP"/><use transform="matrix(0.049382716049382706,0,0,0.049382716049382706,58.12345679012345,0)" xlink:href="#aX"/></g><path fill="#3a414a" d="M233-177c-1 41-23 64-60 70L243 0h-38l-65-103H63V0H30v-248c88 3 205-21 203 71zM63-129c60-2 137 13 137-47 0-61-80-42-137-45v92" id="bs"/><path fill="#3a414a" d="M30-248c118-7 216 8 213 122C240-48 200 0 122 0H30v-248zM63-27c89 8 146-16 146-99s-60-101-146-95v194" id="bt"/><path fill="#3a414a" d="M185-189c-5-48-123-54-124 2 14 75 158 14 163 119 3 78-121 87-175 55-17-10-28-26-33-46l33-7c5 56 141 63 141-1 0-78-155-14-162-118-5-82 145-84 179-34 5 7 8 16 11 25" id="bu"/><g id="Y"><use transform="matrix(0.049382716049382706,0,0,0.049382716049382706,0,0)" xlink:href="#bs"/><use transform="matrix(0.049382716049382706,0,0,0.049382716049382706,12.790123456790122,0)" xlink:href="#bt"/><use transform="matrix(0.049382716049382706,0,0,0.049382716049382706,25.580246913580243,0)" xlink:href="#bu"/></g><g id="Z"><use transform="matrix(0.049382716049382706,0,0,0.049382716049382706,0,0)" xlink:href="#bt"/><use transform="matrix(0.049382716049382706,0,0,0.049382716049382706,12.790123456790122,0)" xlink:href="#aV"/><use transform="matrix(0.049382716049382706,0,0,0.049382716049382706,22.666666666666664,0)" xlink:href="#aR"/><use transform="matrix(0.049382716049382706,0,0,0.049382716049382706,27.60493827160494,0)" xlink:href="#aV"/><use transform="matrix(0.049382716049382706,0,0,0.049382716049382706,37.48148148148148,0)" xlink:href="#bo"/><use transform="matrix(0.049382716049382706,0,0,0.049382716049382706,47.358024691358025,0)" xlink:href="#aV"/><use transform="matrix(0.049382716049382706,0,0,0.049382716049382706,57.23456790123457,0)" xlink:href="#aX"/><use transform="matrix(0.049382716049382706,0,0,0.049382716049382706,66.12345679012346,0)" xlink:href="#aW"/></g><g id="aa"><use transform="matrix(0.049382716049382706,0,0,0.049382716049382706,0,0)" xlink:href="#bu"/><use transform="matrix(0.049382716049382706,0,0,0.049382716049382706,11.85185185185185,0)" xlink:href="#aW"/><use transform="matrix(0.049382716049382706,0,0,0.049382716049382706,21.728395061728392,0)" xlink:href="#aP"/><use transform="matrix(0.049382716049382706,0,0,0.049382716049382706,31.604938271604933,0)" xlink:href="#aX"/><use transform="matrix(0.049382716049382706,0,0,0.049382716049382706,40.49382716049382,0)" xlink:href="#aQ"/><use transform="matrix(0.049382716049382706,0,0,0.049382716049382706,44.395061728395056,0)" xlink:href="#aR"/><use transform="matrix(0.049382716049382706,0,0,0.049382716049382706,49.33333333333333,0)" xlink:href="#aQ"/><use transform="matrix(0.049382716049382706,0,0,0.049382716049382706,53.234567901234556,0)" xlink:href="#br"/><use transform="matrix(0.049382716049382706,0,0,0.049382716049382706,62.12345679012344,0)" xlink:href="#aW"/></g><path fill="#3a414a" d="M33 0v-248h34V0H33" id="bv"/><g id="ab"><use transform="matrix(0.049382716049382706,0,0,0.049382716049382706,0,0)" xlink:href="#bv"/><use transform="matrix(0.049382716049382706,0,0,0.049382716049382706,4.93827160493827,0)" xlink:href="#aP"/><use transform="matrix(0.049382716049382706,0,0,0.049382716049382706,14.814814814814811,0)" xlink:href="#bb"/><use transform="matrix(0.049382716049382706,0,0,0.049382716049382706,19.75308641975308,0)" xlink:href="#aN"/></g><path fill="#3a414a" d="M210-169c-67 3-38 105-44 169h-31v-121c0-29-5-50-35-48C34-165 62-65 56 0H25l-1-190h30c1 10-1 24 2 32 10-44 99-50 107 0 11-21 27-35 58-36 85-2 47 119 55 194h-31v-121c0-29-5-49-35-48" id="bw"/><g id="ac"><use transform="matrix(0.049382716049382706,0,0,0.049382716049382706,0,0)" xlink:href="#bp"/><use transform="matrix(0.049382716049382706,0,0,0.049382716049382706,12.790123456790122,0)" xlink:href="#aX"/><use transform="matrix(0.049382716049382706,0,0,0.049382716049382706,21.67901234567901,0)" xlink:href="#aW"/><use transform="matrix(0.049382716049382706,0,0,0.049382716049382706,31.55555555555555,0)" xlink:href="#ba"/><use transform="matrix(0.049382716049382706,0,0,0.049382716049382706,37.432098765432094,0)" xlink:href="#aP"/><use transform="matrix(0.049382716049382706,0,0,0.049382716049382706,47.30864197530863,0)" xlink:href="#aV"/><use transform="matrix(0.049382716049382706,0,0,0.049382716049382706,57.185185185185176,0)" xlink:href="#bw"/><use transform="matrix(0.049382716049382706,0,0,0.049382716049382706,71.9506172839506,0)" xlink:href="#aW"/></g><path fill="#3a414a" d="M30-248c87 1 191-15 191 75 0 78-77 80-158 76V0H30v-248zm33 125c57 0 124 11 124-50 0-59-68-47-124-48v98" id="bx"/><g id="ad"><use transform="matrix(0.049382716049382706,0,0,0.049382716049382706,0,0)" xlink:href="#bx"/><use transform="matrix(0.049382716049382706,0,0,0.049382716049382706,11.85185185185185,0)" xlink:href="#aV"/><use transform="matrix(0.049382716049382706,0,0,0.049382716049382706,21.728395061728392,0)" xlink:href="#aX"/><use transform="matrix(0.049382716049382706,0,0,0.049382716049382706,30.617283950617278,0)" xlink:href="#aX"/><use transform="matrix(0.049382716049382706,0,0,0.049382716049382706,39.50617283950616,0)" xlink:href="#aU"/><use transform="matrix(0.049382716049382706,0,0,0.049382716049382706,52.29629629629628,0)" xlink:href="#aN"/><use transform="matrix(0.049382716049382706,0,0,0.049382716049382706,62.172839506172814,0)" xlink:href="#ba"/><use transform="matrix(0.049382716049382706,0,0,0.049382716049382706,68.04938271604937,0)" xlink:href="#aS"/></g><path fill="#3a414a" d="M212-179c-10-28-35-45-73-45-59 0-87 40-87 99 0 60 29 101 89 101 43 0 62-24 78-52l27 14C228-24 195 4 139 4 59 4 22-46 18-125c-6-104 99-153 187-111 19 9 31 26 39 46" id="by"/><g id="ae"><use transform="matrix(0.049382716049382706,0,0,0.049382716049382706,0,0)" xlink:href="#by"/><use transform="matrix(0.049382716049382706,0,0,0.049382716049382706,12.790123456790122,0)" xlink:href="#aN"/><use transform="matrix(0.049382716049382706,0,0,0.049382716049382706,22.666666666666664,0)" xlink:href="#aO"/><use transform="matrix(0.049382716049382706,0,0,0.049382716049382706,32.5432098765432,0)" xlink:href="#aP"/><use transform="matrix(0.049382716049382706,0,0,0.049382716049382706,42.419753086419746,0)" xlink:href="#aQ"/><use transform="matrix(0.049382716049382706,0,0,0.049382716049382706,46.32098765432098,0)" xlink:href="#aR"/><use transform="matrix(0.049382716049382706,0,0,0.049382716049382706,51.25925925925925,0)" xlink:href="#aN"/></g><g id="af"><use transform="matrix(0.049382716049382706,0,0,0.049382716049382706,0,0)" xlink:href="#bp"/><use transform="matrix(0.049382716049382706,0,0,0.049382716049382706,12.790123456790122,0)" xlink:href="#aX"/><use transform="matrix(0.049382716049382706,0,0,0.049382716049382706,21.67901234567901,0)" xlink:href="#aW"/><use transform="matrix(0.049382716049382706,0,0,0.049382716049382706,31.55555555555555,0)" xlink:href="#ba"/></g><g id="ag"><use transform="matrix(0.049382716049382706,0,0,0.049382716049382706,0,0)" xlink:href="#bx"/><use transform="matrix(0.049382716049382706,0,0,0.049382716049382706,11.85185185185185,0)" xlink:href="#aN"/><use transform="matrix(0.049382716049382706,0,0,0.049382716049382706,21.728395061728392,0)" xlink:href="#aN"/><use transform="matrix(0.049382716049382706,0,0,0.049382716049382706,31.604938271604933,0)" xlink:href="#bf"/></g><path d="M232-93c-1 65-40 97-104 97C67 4 28-28 28-90v-158h33c8 89-33 224 67 224 102 0 64-133 71-224h33v155" id="bz"/><g id="ah"><use transform="matrix(0.056172839506172814,0,0,0.056172839506172814,0,0)" xlink:href="#bz"/><use transform="matrix(0.056172839506172814,0,0,0.056172839506172814,14.548765432098758,0)" xlink:href="#al"/><use transform="matrix(0.056172839506172814,0,0,0.056172839506172814,24.659876543209865,0)" xlink:href="#am"/><use transform="matrix(0.056172839506172814,0,0,0.056172839506172814,35.89444444444443,0)" xlink:href="#ak"/></g></defs></g></svg>