<svg xmlns="http://www.w3.org/2000/svg" xmlns:xlink="http://www.w3.org/1999/xlink" xmlns:lucid="lucid" width="1986" height="1426.48"><g transform="translate(361 1681)" lucid:page-tab-id="0_0"><path d="M1200-1101.68a6 6 0 0 1 6-6h392a6 6 0 0 1 6 6v188a6 6 0 0 1-6 6h-392a6 6 0 0 1-6-6z" fill="#fff0f0"/><path d="M1200-1101.68a6 6 0 0 1 6-6h392a6 6 0 0 1 6 6v188a6 6 0 0 1-6 6h-392a6 6 0 0 1-6-6zM1200-1067.68h404M1402-1067.68v160" stroke="#febed9" stroke-width="2" fill="none"/><use xlink:href="#a" transform="matrix(1,0,0,1,1210,-1107.6831774303835) translate(173.05 23.6)"/><use xlink:href="#b" transform="matrix(1,0,0,1,1205,-1065.1831774303835) translate(0 17.1)"/><use xlink:href="#c" transform="matrix(1,0,0,1,1205,-1065.1831774303835) translate(54.95 17.1)"/><use xlink:href="#d" transform="matrix(1,0,0,1,1407,-1065.1831774303835) translate(0 17.1)"/><use xlink:href="#e" transform="matrix(1,0,0,1,1205,-1033.1831774303835) translate(0 17.1)"/><use xlink:href="#f" transform="matrix(1,0,0,1,1407,-1033.1831774303835) translate(0 17.1)"/><use xlink:href="#g" transform="matrix(1,0,0,1,1205,-1001.1831774303835) translate(0 17.1)"/><use xlink:href="#f" transform="matrix(1,0,0,1,1407,-1001.1831774303835) translate(0 17.1)"/><use xlink:href="#h" transform="matrix(1,0,0,1,1205,-969.1831774303835) translate(0 17.1)"/><use xlink:href="#f" transform="matrix(1,0,0,1,1407,-969.1831774303835) translate(0 17.1)"/><use xlink:href="#i" transform="matrix(1,0,0,1,1205,-937.1831774303835) translate(0 17.1)"/><use xlink:href="#d" transform="matrix(1,0,0,1,1407,-937.1831774303835) translate(0 17.1)"/><path d="M420-637.52a6 6 0 0 1 6-6h392a6 6 0 0 1 6 6v156a6 6 0 0 1-6 6H426a6 6 0 0 1-6-6z" fill="#fff0f0"/><path d="M420-637.52a6 6 0 0 1 6-6h392a6 6 0 0 1 6 6v156a6 6 0 0 1-6 6H426a6 6 0 0 1-6-6zM420-603.52h404M622-603.52v128" stroke="#febed9" stroke-width="2" fill="none"/><use xlink:href="#j" transform="matrix(1,0,0,1,430,-643.5247602657157) translate(170.05 23.6)"/><use xlink:href="#k" transform="matrix(1,0,0,1,425,-601.0247602657157) translate(0 17.1)"/><use xlink:href="#c" transform="matrix(1,0,0,1,425,-601.0247602657157) translate(18.95 17.1)"/><use xlink:href="#d" transform="matrix(1,0,0,1,627,-601.0247602657157) translate(0 17.1)"/><use xlink:href="#l" transform="matrix(1,0,0,1,425,-569.0247602657157) translate(0 17.1)"/><use xlink:href="#f" transform="matrix(1,0,0,1,627,-569.0247602657157) translate(0 17.1)"/><use xlink:href="#m" transform="matrix(1,0,0,1,425,-537.0247602657157) translate(0 17.1)"/><use xlink:href="#d" transform="matrix(1,0,0,1,627,-537.0247602657157) translate(0 17.1)"/><use xlink:href="#n" transform="matrix(1,0,0,1,425,-505.0247602657157) translate(0 17.1)"/><use xlink:href="#d" transform="matrix(1,0,0,1,627,-505.0247602657157) translate(0 17.1)"/><path d="M1200-469.52a6 6 0 0 1 6-6h392a6 6 0 0 1 6 6v188a6 6 0 0 1-6 6h-392a6 6 0 0 1-6-6z" fill="#fff0f0"/><path d="M1200-469.52a6 6 0 0 1 6-6h392a6 6 0 0 1 6 6v188a6 6 0 0 1-6 6h-392a6 6 0 0 1-6-6zM1200-435.52h404M1402-435.52v160" stroke="#febed9" stroke-width="2" fill="none"/><use xlink:href="#o" transform="matrix(1,0,0,1,1210,-475.52476026571577) translate(164.05 23.6)"/><use xlink:href="#k" transform="matrix(1,0,0,1,1205,-433.02476026571577) translate(0 17.1)"/><use xlink:href="#c" transform="matrix(1,0,0,1,1205,-433.02476026571577) translate(18.95 17.1)"/><use xlink:href="#d" transform="matrix(1,0,0,1,1407,-433.02476026571577) translate(0 17.1)"/><use xlink:href="#p" transform="matrix(1,0,0,1,1205,-401.02476026571577) translate(0 17.1)"/><use xlink:href="#f" transform="matrix(1,0,0,1,1407,-401.02476026571577) translate(0 17.1)"/><use xlink:href="#q" transform="matrix(1,0,0,1,1205,-369.02476026571577) translate(0 17.1)"/><use xlink:href="#f" transform="matrix(1,0,0,1,1407,-369.02476026571577) translate(0 17.1)"/><use xlink:href="#r" transform="matrix(1,0,0,1,1205,-337.02476026571577) translate(0 17.1)"/><use xlink:href="#s" transform="matrix(1,0,0,1,1407,-337.02476026571577) translate(0 17.1)"/><use xlink:href="#t" transform="matrix(1,0,0,1,1205,-305.02476026571577) translate(0 17.1)"/><use xlink:href="#s" transform="matrix(1,0,0,1,1407,-305.02476026571577) translate(0 17.1)"/><path d="M-340-534a6 6 0 0 1 6-6H58a6 6 0 0 1 6 6v124a6 6 0 0 1-6 6h-392a6 6 0 0 1-6-6z" fill="#fff0f0"/><path d="M-340-534a6 6 0 0 1 6-6H58a6 6 0 0 1 6 6v124a6 6 0 0 1-6 6h-392a6 6 0 0 1-6-6zM-340-500H64M-138-500v96" stroke="#febed9" stroke-width="2" fill="none"/><use xlink:href="#u" transform="matrix(1,0,0,1,-330,-540) translate(142.1 23.6)"/><use xlink:href="#k" transform="matrix(1,0,0,1,-335,-497.5) translate(0 17.1)"/><use xlink:href="#c" transform="matrix(1,0,0,1,-335,-497.5) translate(18.95 17.1)"/><use xlink:href="#d" transform="matrix(1,0,0,1,-133,-497.5) translate(0 17.1)"/><use xlink:href="#v" transform="matrix(1,0,0,1,-335,-465.5) translate(0 17.1)"/><use xlink:href="#w" transform="matrix(1,0,0,1,-335,-465.5) translate(59.95 17.1)"/><use xlink:href="#d" transform="matrix(1,0,0,1,-133,-465.5) translate(0 17.1)"/><use xlink:href="#x" transform="matrix(1,0,0,1,-335,-433.5) translate(0 17.1)"/><use xlink:href="#w" transform="matrix(1,0,0,1,-335,-433.5) translate(73.9 17.1)"/><use xlink:href="#d" transform="matrix(1,0,0,1,-133,-433.5) translate(0 17.1)"/><path d="M680-1654a6 6 0 0 1 6-6h392a6 6 0 0 1 6 6v412a6 6 0 0 1-6 6H686a6 6 0 0 1-6-6z" fill="#fff0f0"/><path d="M680-1654a6 6 0 0 1 6-6h392a6 6 0 0 1 6 6v412a6 6 0 0 1-6 6H686a6 6 0 0 1-6-6zM680-1620h404M882-1620v384" stroke="#febed9" stroke-width="2" fill="none"/><use xlink:href="#y" transform="matrix(1,0,0,1,690,-1660) translate(173.525 23.6)"/><use xlink:href="#k" transform="matrix(1,0,0,1,685,-1617.5) translate(0 17.1)"/><use xlink:href="#c" transform="matrix(1,0,0,1,685,-1617.5) translate(18.95 17.1)"/><use xlink:href="#d" transform="matrix(1,0,0,1,887,-1617.5) translate(0 17.1)"/><use xlink:href="#z" transform="matrix(1,0,0,1,685,-1585.5) translate(0 17.1)"/><use xlink:href="#f" transform="matrix(1,0,0,1,887,-1585.5) translate(0 17.1)"/><use xlink:href="#q" transform="matrix(1,0,0,1,685,-1553.5) translate(0 17.1)"/><use xlink:href="#f" transform="matrix(1,0,0,1,887,-1553.5) translate(0 17.1)"/><use xlink:href="#A" transform="matrix(1,0,0,1,685,-1521.5) translate(0 17.1)"/><use xlink:href="#f" transform="matrix(1,0,0,1,887,-1521.5) translate(0 17.1)"/><use xlink:href="#B" transform="matrix(1,0,0,1,685,-1489.5) translate(0 17.1)"/><use xlink:href="#f" transform="matrix(1,0,0,1,887,-1489.5) translate(0 17.1)"/><use xlink:href="#C" transform="matrix(1,0,0,1,685,-1457.5) translate(0 17.1)"/><use xlink:href="#f" transform="matrix(1,0,0,1,887,-1457.5) translate(0 17.1)"/><use xlink:href="#r" transform="matrix(1,0,0,1,685,-1425.5) translate(0 17.1)"/><use xlink:href="#s" transform="matrix(1,0,0,1,887,-1425.5) translate(0 17.1)"/><use xlink:href="#D" transform="matrix(1,0,0,1,685,-1393.5) translate(0 17.1)"/><use xlink:href="#s" transform="matrix(1,0,0,1,887,-1393.5) translate(0 17.1)"/><use xlink:href="#E" transform="matrix(1,0,0,1,685,-1361.5) translate(0 17.1)"/><use xlink:href="#d" transform="matrix(1,0,0,1,887,-1361.5) translate(0 17.1)"/><use xlink:href="#x" transform="matrix(1,0,0,1,685,-1329.5) translate(0 17.1)"/><use xlink:href="#w" transform="matrix(1,0,0,1,685,-1329.5) translate(73.9 17.1)"/><use xlink:href="#d" transform="matrix(1,0,0,1,887,-1329.5) translate(0 17.1)"/><use xlink:href="#F" transform="matrix(1,0,0,1,685,-1297.5) translate(0 17.1)"/><use xlink:href="#w" transform="matrix(1,0,0,1,685,-1297.5) translate(108.85000000000001 17.1)"/><use xlink:href="#d" transform="matrix(1,0,0,1,887,-1297.5) translate(0 17.1)"/><use xlink:href="#G" transform="matrix(1,0,0,1,685,-1265.5) translate(0 17.1)"/><use xlink:href="#d" transform="matrix(1,0,0,1,887,-1265.5) translate(0 17.1)"/><path d="M-340-1134a6 6 0 0 1 6-6H58a6 6 0 0 1 6 6v124a6 6 0 0 1-6 6h-392a6 6 0 0 1-6-6z" fill="#fff0f0"/><path d="M-340-1134a6 6 0 0 1 6-6H58a6 6 0 0 1 6 6v124a6 6 0 0 1-6 6h-392a6 6 0 0 1-6-6zM-340-1100H64M-138-1100v96" stroke="#febed9" stroke-width="2" fill="none"/><use xlink:href="#H" transform="matrix(1,0,0,1,-330,-1140) translate(126.57499999999999 23.6)"/><use xlink:href="#k" transform="matrix(1,0,0,1,-335,-1097.5) translate(0 17.1)"/><use xlink:href="#c" transform="matrix(1,0,0,1,-335,-1097.5) translate(18.95 17.1)"/><use xlink:href="#d" transform="matrix(1,0,0,1,-133,-1097.5) translate(0 17.1)"/><use xlink:href="#b" transform="matrix(1,0,0,1,-335,-1065.5) translate(0 17.1)"/><use xlink:href="#w" transform="matrix(1,0,0,1,-335,-1065.5) translate(54.95 17.1)"/><use xlink:href="#d" transform="matrix(1,0,0,1,-133,-1065.5) translate(0 17.1)"/><use xlink:href="#I" transform="matrix(1,0,0,1,-335,-1033.5) translate(0 17.1)"/><use xlink:href="#w" transform="matrix(1,0,0,1,-335,-1033.5) translate(53 17.1)"/><use xlink:href="#d" transform="matrix(1,0,0,1,-133,-1033.5) translate(0 17.1)"/><path d="M-340-1434a6 6 0 0 1 6-6H58a6 6 0 0 1 6 6v188a6 6 0 0 1-6 6h-392a6 6 0 0 1-6-6z" fill="#fff0f0"/><path d="M-340-1434a6 6 0 0 1 6-6H58a6 6 0 0 1 6 6v188a6 6 0 0 1-6 6h-392a6 6 0 0 1-6-6zM-340-1400H64M-138-1400v160" stroke="#febed9" stroke-width="2" fill="none"/><use xlink:href="#J" transform="matrix(1,0,0,1,-330,-1440) translate(146.525 23.6)"/><use xlink:href="#k" transform="matrix(1,0,0,1,-335,-1397.5) translate(0 17.1)"/><use xlink:href="#c" transform="matrix(1,0,0,1,-335,-1397.5) translate(18.95 17.1)"/><use xlink:href="#d" transform="matrix(1,0,0,1,-133,-1397.5) translate(0 17.1)"/><use xlink:href="#K" transform="matrix(1,0,0,1,-335,-1365.5) translate(0 17.1)"/><use xlink:href="#f" transform="matrix(1,0,0,1,-133,-1365.5) translate(0 17.1)"/><use xlink:href="#L" transform="matrix(1,0,0,1,-335,-1333.5) translate(0 17.1)"/><use xlink:href="#f" transform="matrix(1,0,0,1,-133,-1333.5) translate(0 17.1)"/><use xlink:href="#I" transform="matrix(1,0,0,1,-335,-1301.5) translate(0 17.1)"/><use xlink:href="#w" transform="matrix(1,0,0,1,-335,-1301.5) translate(53 17.1)"/><use xlink:href="#d" transform="matrix(1,0,0,1,-133,-1301.5) translate(0 17.1)"/><use xlink:href="#M" transform="matrix(1,0,0,1,-335,-1269.5) translate(0 17.1)"/><use xlink:href="#w" transform="matrix(1,0,0,1,-335,-1269.5) translate(114.95 17.1)"/><use xlink:href="#d" transform="matrix(1,0,0,1,-133,-1269.5) translate(0 17.1)"/><path d="M-340-898a6 6 0 0 1 6-6H58a6 6 0 0 1 6 6v156a6 6 0 0 1-6 6h-392a6 6 0 0 1-6-6z" fill="#fff0f0"/><path d="M-340-898a6 6 0 0 1 6-6H58a6 6 0 0 1 6 6v156a6 6 0 0 1-6 6h-392a6 6 0 0 1-6-6zM-340-864H64M-138-864v128" stroke="#febed9" stroke-width="2" fill="none"/><use xlink:href="#N" transform="matrix(1,0,0,1,-330,-904) translate(153.075 23.6)"/><use xlink:href="#k" transform="matrix(1,0,0,1,-335,-861.5) translate(0 17.1)"/><use xlink:href="#c" transform="matrix(1,0,0,1,-335,-861.5) translate(18.95 17.1)"/><use xlink:href="#d" transform="matrix(1,0,0,1,-133,-861.5) translate(0 17.1)"/><use xlink:href="#O" transform="matrix(1,0,0,1,-335,-829.5) translate(0 17.1)"/><use xlink:href="#f" transform="matrix(1,0,0,1,-133,-829.5) translate(0 17.1)"/><use xlink:href="#I" transform="matrix(1,0,0,1,-335,-797.5) translate(0 17.1)"/><use xlink:href="#w" transform="matrix(1,0,0,1,-335,-797.5) translate(53 17.1)"/><use xlink:href="#d" transform="matrix(1,0,0,1,-133,-797.5) translate(0 17.1)"/><use xlink:href="#b" transform="matrix(1,0,0,1,-335,-765.5) translate(0 17.1)"/><use xlink:href="#w" transform="matrix(1,0,0,1,-335,-765.5) translate(54.95 17.1)"/><use xlink:href="#d" transform="matrix(1,0,0,1,-133,-765.5) translate(0 17.1)"/><path d="M85-1051.9h1094.6M65-1051.9h20m0 10v-20M1198.78-1051.9h-20m20-10l-20 10m20 10l-20-10M85-1019.74h281a6 6 0 0 0 6-6v-573.03a6 6 0 0 1 6-6h281.6M65-1019.74h20m0 10v-20M678.78-1604.77h-20m20-10l-20 10m20 10l-20-10M85-420h546.87a.13.13 0 0 1 .13.13.13.13 0 0 0 .13.13H1179M65-420h20m0 10v-20M1199-419.74h-20m0-10v20M85-452h151a6 6 0 0 0 6-6v-123.66a6 6 0 0 1 6-6h151M65-452h20m0 10v-20M419-587.66h-20m0-10v20" stroke="#3a414a" fill="none"/><path d="M85-1287.74h281a6 6 0 0 0 6-6v-305.03a6 6 0 0 1 6-6h281.6M65-1287.74h20m0 10v-20M678.78-1604.77h-20m20-10l-20 10m20 10l-20-10M85-1255.58h541a6 6 0 0 1 6 6v191.68a6 6 0 0 0 6 6h541M65-1255.58h20m0 10v-20M1199-1051.9h-20m0-10v20" stroke="#3a414a" fill="none"/><path d="M85-751.66h541a6 6 0 0 0 6-6v-288.24a6 6 0 0 1 6-6h541.6M65-751.66h20m0 10v-20M1198.78-1051.9h-20m20-10l-20 10m20 10l-20-10" stroke="#3a414a" fill="none"/><path d="M85-783.82h281a6 6 0 0 0 6-6v-808.95a6 6 0 0 1 6-6h281M65-783.82h20m0 10v-20M679-1604.77h-20m0-10v20M845-523.35h161a6 6 0 0 0 6-6v-516.55a6 6 0 0 1 6-6h161M825-523.35h20m0 10v-20M1199-1051.9h-20m0-10v20" stroke="#3a414a" fill="none"/><path d="M845-491.2h161a6 6 0 0 0 6-6v-548.7a6 6 0 0 1 6-6h161M825-491.2h20m0 10v-20M1199-1051.9h-20m0-10v20M1105-1283.2h31a6 6 0 0 1 6 6v219.3a6 6 0 0 0 6 6h31M1085-1283.2h20m0 10v-20M1199-1051.9h-20m0-10v20" stroke="#3a414a" fill="none"/><path d="M1105-1251.03h31a6 6 0 0 1 6 6v187.13a6 6 0 0 0 6 6h31M1085-1251.03h20m0 10v-20M1199-1051.9h-20m0-10v20" stroke="#3a414a" fill="none"/><path d="M1105-1315.35h31a6 6 0 0 1 6 6v883.6a6 6 0 0 0 6 6h31M1085-1315.35h20m0 10v-20M1199-419.74h-20m0-10v20" stroke="#3a414a" fill="none"/><defs><path fill="#3a414a" d="M232-93c-1 65-40 97-104 97C67 4 28-28 28-90v-158h33c8 89-33 224 67 224 102 0 64-133 71-224h33v155" id="P"/><path fill="#3a414a" d="M135-143c-3-34-86-38-87 0 15 53 115 12 119 90S17 21 10-45l28-5c4 36 97 45 98 0-10-56-113-15-118-90-4-57 82-63 122-42 12 7 21 19 24 35" id="Q"/><path fill="#3a414a" d="M100-194c63 0 86 42 84 106H49c0 40 14 67 53 68 26 1 43-12 49-29l28 8c-11 28-37 45-77 45C44 4 14-33 15-96c1-61 26-98 85-98zm52 81c6-60-76-77-97-28-3 7-6 17-6 28h103" id="R"/><path fill="#3a414a" d="M114-163C36-179 61-72 57 0H25l-1-190h30c1 12-1 29 2 39 6-27 23-49 58-41v29" id="S"/><g id="a"><use transform="matrix(0.05,0,0,0.05,0,0)" xlink:href="#P"/><use transform="matrix(0.05,0,0,0.05,12.950000000000001,0)" xlink:href="#Q"/><use transform="matrix(0.05,0,0,0.05,21.950000000000003,0)" xlink:href="#R"/><use transform="matrix(0.05,0,0,0.05,31.950000000000003,0)" xlink:href="#S"/></g><path d="M84 4C-5 8 30-112 23-190h32v120c0 31 7 50 39 49 72-2 45-101 50-169h31l1 190h-30c-1-10 1-25-2-33-11 22-28 36-60 37" id="T"/><path d="M135-143c-3-34-86-38-87 0 15 53 115 12 119 90S17 21 10-45l28-5c4 36 97 45 98 0-10-56-113-15-118-90-4-57 82-63 122-42 12 7 21 19 24 35" id="U"/><path d="M100-194c63 0 86 42 84 106H49c0 40 14 67 53 68 26 1 43-12 49-29l28 8c-11 28-37 45-77 45C44 4 14-33 15-96c1-61 26-98 85-98zm52 81c6-60-76-77-97-28-3 7-6 17-6 28h103" id="V"/><path d="M114-163C36-179 61-72 57 0H25l-1-190h30c1 12-1 29 2 39 6-27 23-49 58-41v29" id="W"/><path d="M33 0v-248h34V0H33" id="X"/><path d="M85-194c31 0 48 13 60 33l-1-100h32l1 261h-30c-2-10 0-23-3-31C134-8 116 4 85 4 32 4 16-35 15-94c0-66 23-100 70-100zm9 24c-40 0-46 34-46 75 0 40 6 74 45 74 42 0 51-32 51-76 0-42-9-74-50-73" id="Y"/><g id="b"><use transform="matrix(0.05,0,0,0.05,0,0)" xlink:href="#T"/><use transform="matrix(0.05,0,0,0.05,10,0)" xlink:href="#U"/><use transform="matrix(0.05,0,0,0.05,19,0)" xlink:href="#V"/><use transform="matrix(0.05,0,0,0.05,29,0)" xlink:href="#W"/><use transform="matrix(0.05,0,0,0.05,34.95,0)" xlink:href="#X"/><use transform="matrix(0.05,0,0,0.05,39.95,0)" xlink:href="#Y"/></g><path d="M30-248c87 1 191-15 191 75 0 78-77 80-158 76V0H30v-248zm33 125c57 0 124 11 124-50 0-59-68-47-124-48v98" id="Z"/><path d="M194 0L95-120 63-95V0H30v-248h33v124l119-124h40L117-140 236 0h-42" id="aa"/><g id="c"><use transform="matrix(0.05,0,0,0.05,0,0)" xlink:href="#Z"/><use transform="matrix(0.05,0,0,0.05,12,0)" xlink:href="#aa"/></g><path d="M24-231v-30h32v30H24zM24 0v-190h32V0H24" id="ab"/><path d="M117-194c89-4 53 116 60 194h-32v-121c0-31-8-49-39-48C34-167 62-67 57 0H25l-1-190h30c1 10-1 24 2 32 11-22 29-35 61-36" id="ac"/><path d="M59-47c-2 24 18 29 38 22v24C64 9 27 4 27-40v-127H5v-23h24l9-43h21v43h35v23H59v120" id="ad"/><g id="d"><use transform="matrix(0.05,0,0,0.05,0,0)" xlink:href="#ab"/><use transform="matrix(0.05,0,0,0.05,3.95,0)" xlink:href="#ac"/><use transform="matrix(0.05,0,0,0.05,13.949999999999998,0)" xlink:href="#ad"/></g><path d="M96-169c-40 0-48 33-48 73s9 75 48 75c24 0 41-14 43-38l32 2c-6 37-31 61-74 61-59 0-76-41-82-99-10-93 101-131 147-64 4 7 5 14 7 22l-32 3c-4-21-16-35-41-35" id="ae"/><path d="M100-194c62-1 85 37 85 99 1 63-27 99-86 99S16-35 15-95c0-66 28-99 85-99zM99-20c44 1 53-31 53-75 0-43-8-75-51-75s-53 32-53 75 10 74 51 75" id="af"/><path d="M177-190C167-65 218 103 67 71c-23-6-38-20-44-43l32-5c15 47 100 32 89-28v-30C133-14 115 1 83 1 29 1 15-40 15-95c0-56 16-97 71-98 29-1 48 16 59 35 1-10 0-23 2-32h30zM94-22c36 0 50-32 50-73 0-42-14-75-50-75-39 0-46 34-46 75s6 73 46 73" id="ag"/><g id="e"><use transform="matrix(0.05,0,0,0.05,0,0)" xlink:href="#ae"/><use transform="matrix(0.05,0,0,0.05,9,0)" xlink:href="#af"/><use transform="matrix(0.05,0,0,0.05,19,0)" xlink:href="#ag"/><use transform="matrix(0.05,0,0,0.05,29,0)" xlink:href="#ac"/><use transform="matrix(0.05,0,0,0.05,39,0)" xlink:href="#ab"/><use transform="matrix(0.05,0,0,0.05,42.95,0)" xlink:href="#ad"/><use transform="matrix(0.05,0,0,0.05,47.95,0)" xlink:href="#af"/><use transform="matrix(0.05,0,0,0.05,57.95,0)" xlink:href="#X"/><use transform="matrix(0.05,0,0,0.05,62.95,0)" xlink:href="#Y"/></g><g id="f"><use transform="matrix(0.05,0,0,0.05,0,0)" xlink:href="#U"/><use transform="matrix(0.05,0,0,0.05,9,0)" xlink:href="#ad"/><use transform="matrix(0.05,0,0,0.05,14,0)" xlink:href="#W"/><use transform="matrix(0.05,0,0,0.05,19.95,0)" xlink:href="#ab"/><use transform="matrix(0.05,0,0,0.05,23.9,0)" xlink:href="#ac"/><use transform="matrix(0.05,0,0,0.05,33.9,0)" xlink:href="#ag"/></g><path d="M141-36C126-15 110 5 73 4 37 3 15-17 15-53c-1-64 63-63 125-63 3-35-9-54-41-54-24 1-41 7-42 31l-33-3c5-37 33-52 76-52 45 0 72 20 72 64v82c-1 20 7 32 28 27v20c-31 9-61-2-59-35zM48-53c0 20 12 33 32 33 41-3 63-29 60-74-43 2-92-5-92 41" id="ah"/><path d="M210-169c-67 3-38 105-44 169h-31v-121c0-29-5-50-35-48C34-165 62-65 56 0H25l-1-190h30c1 10-1 24 2 32 10-44 99-50 107 0 11-21 27-35 58-36 85-2 47 119 55 194h-31v-121c0-29-5-49-35-48" id="ai"/><g id="g"><use transform="matrix(0.05,0,0,0.05,0,0)" xlink:href="#T"/><use transform="matrix(0.05,0,0,0.05,10,0)" xlink:href="#U"/><use transform="matrix(0.05,0,0,0.05,19,0)" xlink:href="#V"/><use transform="matrix(0.05,0,0,0.05,29,0)" xlink:href="#W"/><use transform="matrix(0.05,0,0,0.05,34.95,0)" xlink:href="#ac"/><use transform="matrix(0.05,0,0,0.05,44.95,0)" xlink:href="#ah"/><use transform="matrix(0.05,0,0,0.05,54.95,0)" xlink:href="#ai"/><use transform="matrix(0.05,0,0,0.05,69.9,0)" xlink:href="#V"/></g><path d="M115-194c55 1 70 41 70 98S169 2 115 4C84 4 66-9 55-30l1 105H24l-1-265h31l2 30c10-21 28-34 59-34zm-8 174c40 0 45-34 45-75s-6-73-45-74c-42 0-51 32-51 76 0 43 10 73 51 73" id="aj"/><path d="M101-234c-31-9-42 10-38 44h38v23H63V0H32v-167H5v-23h27c-7-52 17-82 69-68v24" id="ak"/><path d="M24 0v-261h32V0H24" id="al"/><path d="M232-93c-1 65-40 97-104 97C67 4 28-28 28-90v-158h33c8 89-33 224 67 224 102 0 64-133 71-224h33v155" id="am"/><g id="h"><use transform="matrix(0.05,0,0,0.05,0,0)" xlink:href="#aj"/><use transform="matrix(0.05,0,0,0.05,10,0)" xlink:href="#W"/><use transform="matrix(0.05,0,0,0.05,15.949999999999998,0)" xlink:href="#af"/><use transform="matrix(0.05,0,0,0.05,25.950000000000003,0)" xlink:href="#ak"/><use transform="matrix(0.05,0,0,0.05,30.950000000000003,0)" xlink:href="#ab"/><use transform="matrix(0.05,0,0,0.05,34.9,0)" xlink:href="#al"/><use transform="matrix(0.05,0,0,0.05,38.85,0)" xlink:href="#V"/><use transform="matrix(0.05,0,0,0.05,48.85,0)" xlink:href="#Z"/><use transform="matrix(0.05,0,0,0.05,60.85,0)" xlink:href="#ab"/><use transform="matrix(0.05,0,0,0.05,64.8,0)" xlink:href="#ae"/><use transform="matrix(0.05,0,0,0.05,73.8,0)" xlink:href="#ad"/><use transform="matrix(0.05,0,0,0.05,78.8,0)" xlink:href="#T"/><use transform="matrix(0.05,0,0,0.05,88.8,0)" xlink:href="#W"/><use transform="matrix(0.05,0,0,0.05,94.75,0)" xlink:href="#V"/><use transform="matrix(0.05,0,0,0.05,104.75,0)" xlink:href="#am"/><use transform="matrix(0.05,0,0,0.05,117.7,0)" xlink:href="#W"/><use transform="matrix(0.05,0,0,0.05,123.65,0)" xlink:href="#al"/></g><g id="i"><use transform="matrix(0.05,0,0,0.05,0,0)" xlink:href="#ad"/><use transform="matrix(0.05,0,0,0.05,5,0)" xlink:href="#V"/><use transform="matrix(0.05,0,0,0.05,15,0)" xlink:href="#ah"/><use transform="matrix(0.05,0,0,0.05,25,0)" xlink:href="#ai"/><use transform="matrix(0.05,0,0,0.05,39.95,0)" xlink:href="#X"/><use transform="matrix(0.05,0,0,0.05,44.95,0)" xlink:href="#Y"/></g><path fill="#3a414a" d="M127-220V0H93v-220H8v-28h204v28h-85" id="an"/><path fill="#3a414a" d="M141-36C126-15 110 5 73 4 37 3 15-17 15-53c-1-64 63-63 125-63 3-35-9-54-41-54-24 1-41 7-42 31l-33-3c5-37 33-52 76-52 45 0 72 20 72 64v82c-1 20 7 32 28 27v20c-31 9-61-2-59-35zM48-53c0 20 12 33 32 33 41-3 63-29 60-74-43 2-92-5-92 41" id="ao"/><path fill="#3a414a" d="M210-169c-67 3-38 105-44 169h-31v-121c0-29-5-50-35-48C34-165 62-65 56 0H25l-1-190h30c1 10-1 24 2 32 10-44 99-50 107 0 11-21 27-35 58-36 85-2 47 119 55 194h-31v-121c0-29-5-49-35-48" id="ap"/><g id="j"><use transform="matrix(0.05,0,0,0.05,0,0)" xlink:href="#an"/><use transform="matrix(0.05,0,0,0.05,8.950000000000001,0)" xlink:href="#R"/><use transform="matrix(0.05,0,0,0.05,18.950000000000003,0)" xlink:href="#ao"/><use transform="matrix(0.05,0,0,0.05,28.950000000000003,0)" xlink:href="#ap"/></g><g id="k"><use transform="matrix(0.05,0,0,0.05,0,0)" xlink:href="#ab"/><use transform="matrix(0.05,0,0,0.05,3.95,0)" xlink:href="#Y"/></g><path d="M190 0L58-211 59 0H30v-248h39L202-35l-2-213h31V0h-41" id="aq"/><g id="l"><use transform="matrix(0.05,0,0,0.05,0,0)" xlink:href="#ad"/><use transform="matrix(0.05,0,0,0.05,5,0)" xlink:href="#V"/><use transform="matrix(0.05,0,0,0.05,15,0)" xlink:href="#ah"/><use transform="matrix(0.05,0,0,0.05,25,0)" xlink:href="#ai"/><use transform="matrix(0.05,0,0,0.05,39.95,0)" xlink:href="#aq"/><use transform="matrix(0.05,0,0,0.05,52.900000000000006,0)" xlink:href="#ah"/><use transform="matrix(0.05,0,0,0.05,62.900000000000006,0)" xlink:href="#ai"/><use transform="matrix(0.05,0,0,0.05,77.85000000000001,0)" xlink:href="#V"/></g><path d="M140-251c81 0 123 46 123 126C263-46 219 4 140 4 59 4 17-45 17-125s42-126 123-126zm0 227c63 0 89-41 89-101s-29-99-89-99c-61 0-89 39-89 99S79-25 140-24" id="ar"/><path d="M206 0h-36l-40-164L89 0H53L-1-190h32L70-26l43-164h34l41 164 42-164h31" id="as"/><g id="m"><use transform="matrix(0.05,0,0,0.05,0,0)" xlink:href="#aj"/><use transform="matrix(0.05,0,0,0.05,10,0)" xlink:href="#W"/><use transform="matrix(0.05,0,0,0.05,15.949999999999998,0)" xlink:href="#af"/><use transform="matrix(0.05,0,0,0.05,25.950000000000003,0)" xlink:href="#Y"/><use transform="matrix(0.05,0,0,0.05,35.95,0)" xlink:href="#T"/><use transform="matrix(0.05,0,0,0.05,45.95,0)" xlink:href="#ae"/><use transform="matrix(0.05,0,0,0.05,54.95,0)" xlink:href="#ad"/><use transform="matrix(0.05,0,0,0.05,59.95,0)" xlink:href="#ar"/><use transform="matrix(0.05,0,0,0.05,73.95,0)" xlink:href="#as"/><use transform="matrix(0.05,0,0,0.05,86.9,0)" xlink:href="#ac"/><use transform="matrix(0.05,0,0,0.05,96.9,0)" xlink:href="#V"/><use transform="matrix(0.05,0,0,0.05,106.9,0)" xlink:href="#W"/><use transform="matrix(0.05,0,0,0.05,112.85000000000001,0)" xlink:href="#am"/><use transform="matrix(0.05,0,0,0.05,125.80000000000001,0)" xlink:href="#U"/><use transform="matrix(0.05,0,0,0.05,134.8,0)" xlink:href="#V"/><use transform="matrix(0.05,0,0,0.05,144.8,0)" xlink:href="#W"/><use transform="matrix(0.05,0,0,0.05,150.75,0)" xlink:href="#X"/><use transform="matrix(0.05,0,0,0.05,155.75,0)" xlink:href="#Y"/></g><path d="M24-231v-30h32v30H24zM-9 49c24 4 33-6 33-30v-209h32V24c2 40-23 58-65 49V49" id="at"/><path d="M240 0l2-218c-23 76-54 145-80 218h-23L58-218 59 0H30v-248h44l77 211c21-75 51-140 76-211h43V0h-30" id="au"/><g id="n"><use transform="matrix(0.05,0,0,0.05,0,0)" xlink:href="#aj"/><use transform="matrix(0.05,0,0,0.05,10,0)" xlink:href="#W"/><use transform="matrix(0.05,0,0,0.05,15.949999999999998,0)" xlink:href="#af"/><use transform="matrix(0.05,0,0,0.05,25.950000000000003,0)" xlink:href="#at"/><use transform="matrix(0.05,0,0,0.05,29.899999999999995,0)" xlink:href="#V"/><use transform="matrix(0.05,0,0,0.05,39.9,0)" xlink:href="#ae"/><use transform="matrix(0.05,0,0,0.05,48.9,0)" xlink:href="#ad"/><use transform="matrix(0.05,0,0,0.05,53.900000000000006,0)" xlink:href="#au"/><use transform="matrix(0.05,0,0,0.05,68.85,0)" xlink:href="#ah"/><use transform="matrix(0.05,0,0,0.05,78.85,0)" xlink:href="#ac"/><use transform="matrix(0.05,0,0,0.05,88.85,0)" xlink:href="#ah"/><use transform="matrix(0.05,0,0,0.05,98.85,0)" xlink:href="#ag"/><use transform="matrix(0.05,0,0,0.05,108.84999999999998,0)" xlink:href="#V"/><use transform="matrix(0.05,0,0,0.05,118.84999999999998,0)" xlink:href="#W"/><use transform="matrix(0.05,0,0,0.05,124.80000000000001,0)" xlink:href="#am"/><use transform="matrix(0.05,0,0,0.05,137.75,0)" xlink:href="#U"/><use transform="matrix(0.05,0,0,0.05,146.75,0)" xlink:href="#V"/><use transform="matrix(0.05,0,0,0.05,156.75,0)" xlink:href="#W"/><use transform="matrix(0.05,0,0,0.05,162.7,0)" xlink:href="#X"/><use transform="matrix(0.05,0,0,0.05,167.7,0)" xlink:href="#Y"/></g><path fill="#3a414a" d="M30-248c87 1 191-15 191 75 0 78-77 80-158 76V0H30v-248zm33 125c57 0 124 11 124-50 0-59-68-47-124-48v98" id="av"/><path fill="#3a414a" d="M100-194c62-1 85 37 85 99 1 63-27 99-86 99S16-35 15-95c0-66 28-99 85-99zM99-20c44 1 53-31 53-75 0-43-8-75-51-75s-53 32-53 75 10 74 51 75" id="aw"/><path fill="#3a414a" d="M24-231v-30h32v30H24zM-9 49c24 4 33-6 33-30v-209h32V24c2 40-23 58-65 49V49" id="ax"/><path fill="#3a414a" d="M96-169c-40 0-48 33-48 73s9 75 48 75c24 0 41-14 43-38l32 2c-6 37-31 61-74 61-59 0-76-41-82-99-10-93 101-131 147-64 4 7 5 14 7 22l-32 3c-4-21-16-35-41-35" id="ay"/><path fill="#3a414a" d="M59-47c-2 24 18 29 38 22v24C64 9 27 4 27-40v-127H5v-23h24l9-43h21v43h35v23H59v120" id="az"/><g id="o"><use transform="matrix(0.05,0,0,0.05,0,0)" xlink:href="#av"/><use transform="matrix(0.05,0,0,0.05,12,0)" xlink:href="#S"/><use transform="matrix(0.05,0,0,0.05,17.95,0)" xlink:href="#aw"/><use transform="matrix(0.05,0,0,0.05,27.950000000000003,0)" xlink:href="#ax"/><use transform="matrix(0.05,0,0,0.05,31.899999999999995,0)" xlink:href="#R"/><use transform="matrix(0.05,0,0,0.05,41.9,0)" xlink:href="#ay"/><use transform="matrix(0.05,0,0,0.05,50.9,0)" xlink:href="#az"/></g><g id="p"><use transform="matrix(0.05,0,0,0.05,0,0)" xlink:href="#ac"/><use transform="matrix(0.05,0,0,0.05,10,0)" xlink:href="#ah"/><use transform="matrix(0.05,0,0,0.05,20,0)" xlink:href="#ai"/><use transform="matrix(0.05,0,0,0.05,34.95,0)" xlink:href="#V"/></g><g id="q"><use transform="matrix(0.05,0,0,0.05,0,0)" xlink:href="#Y"/><use transform="matrix(0.05,0,0,0.05,10,0)" xlink:href="#V"/><use transform="matrix(0.05,0,0,0.05,20,0)" xlink:href="#U"/><use transform="matrix(0.05,0,0,0.05,29,0)" xlink:href="#ae"/><use transform="matrix(0.05,0,0,0.05,38,0)" xlink:href="#W"/><use transform="matrix(0.05,0,0,0.05,43.95,0)" xlink:href="#ab"/><use transform="matrix(0.05,0,0,0.05,47.900000000000006,0)" xlink:href="#aj"/><use transform="matrix(0.05,0,0,0.05,57.900000000000006,0)" xlink:href="#ad"/><use transform="matrix(0.05,0,0,0.05,62.900000000000006,0)" xlink:href="#ab"/><use transform="matrix(0.05,0,0,0.05,66.85000000000001,0)" xlink:href="#af"/><use transform="matrix(0.05,0,0,0.05,76.85000000000001,0)" xlink:href="#ac"/></g><path d="M30-248c118-7 216 8 213 122C240-48 200 0 122 0H30v-248zM63-27c89 8 146-16 146-99s-60-101-146-95v194" id="aA"/><g id="r"><use transform="matrix(0.05,0,0,0.05,0,0)" xlink:href="#U"/><use transform="matrix(0.05,0,0,0.05,9,0)" xlink:href="#ad"/><use transform="matrix(0.05,0,0,0.05,14,0)" xlink:href="#ah"/><use transform="matrix(0.05,0,0,0.05,24,0)" xlink:href="#W"/><use transform="matrix(0.05,0,0,0.05,29.950000000000003,0)" xlink:href="#ad"/><use transform="matrix(0.05,0,0,0.05,34.95,0)" xlink:href="#aA"/><use transform="matrix(0.05,0,0,0.05,47.900000000000006,0)" xlink:href="#ah"/><use transform="matrix(0.05,0,0,0.05,57.900000000000006,0)" xlink:href="#ad"/><use transform="matrix(0.05,0,0,0.05,62.900000000000006,0)" xlink:href="#V"/></g><g id="s"><use transform="matrix(0.05,0,0,0.05,0,0)" xlink:href="#Y"/><use transform="matrix(0.05,0,0,0.05,10,0)" xlink:href="#ah"/><use transform="matrix(0.05,0,0,0.05,20,0)" xlink:href="#ad"/><use transform="matrix(0.05,0,0,0.05,25,0)" xlink:href="#V"/><use transform="matrix(0.05,0,0,0.05,35,0)" xlink:href="#ad"/><use transform="matrix(0.05,0,0,0.05,40,0)" xlink:href="#ab"/><use transform="matrix(0.05,0,0,0.05,43.95,0)" xlink:href="#ai"/><use transform="matrix(0.05,0,0,0.05,58.900000000000006,0)" xlink:href="#V"/></g><g id="t"><use transform="matrix(0.05,0,0,0.05,0,0)" xlink:href="#V"/><use transform="matrix(0.05,0,0,0.05,10,0)" xlink:href="#ac"/><use transform="matrix(0.05,0,0,0.05,20,0)" xlink:href="#Y"/><use transform="matrix(0.05,0,0,0.05,30,0)" xlink:href="#aA"/><use transform="matrix(0.05,0,0,0.05,42.95,0)" xlink:href="#ah"/><use transform="matrix(0.05,0,0,0.05,52.95,0)" xlink:href="#ad"/><use transform="matrix(0.05,0,0,0.05,57.95,0)" xlink:href="#V"/></g><g id="u"><use transform="matrix(0.05,0,0,0.05,0,0)" xlink:href="#av"/><use transform="matrix(0.05,0,0,0.05,12,0)" xlink:href="#S"/><use transform="matrix(0.05,0,0,0.05,17.95,0)" xlink:href="#aw"/><use transform="matrix(0.05,0,0,0.05,27.950000000000003,0)" xlink:href="#ax"/><use transform="matrix(0.05,0,0,0.05,31.899999999999995,0)" xlink:href="#R"/><use transform="matrix(0.05,0,0,0.05,41.9,0)" xlink:href="#ay"/><use transform="matrix(0.05,0,0,0.05,50.9,0)" xlink:href="#az"/><use transform="matrix(0.05,0,0,0.05,55.900000000000006,0)" xlink:href="#an"/><use transform="matrix(0.05,0,0,0.05,64.85,0)" xlink:href="#R"/><use transform="matrix(0.05,0,0,0.05,74.85,0)" xlink:href="#ao"/><use transform="matrix(0.05,0,0,0.05,84.85,0)" xlink:href="#ap"/></g><g id="v"><use transform="matrix(0.05,0,0,0.05,0,0)" xlink:href="#ad"/><use transform="matrix(0.05,0,0,0.05,5,0)" xlink:href="#V"/><use transform="matrix(0.05,0,0,0.05,15,0)" xlink:href="#ah"/><use transform="matrix(0.05,0,0,0.05,25,0)" xlink:href="#ai"/><use transform="matrix(0.05,0,0,0.05,39.95,0)" xlink:href="#X"/><use transform="matrix(0.05,0,0,0.05,44.95,0)" xlink:href="#Y"/></g><path d="M63-220v92h138v28H63V0H30v-248h175v28H63" id="aB"/><g id="w"><use transform="matrix(0.05,0,0,0.05,0,0)" xlink:href="#aB"/><use transform="matrix(0.05,0,0,0.05,10.950000000000001,0)" xlink:href="#aa"/></g><g id="x"><use transform="matrix(0.05,0,0,0.05,0,0)" xlink:href="#aj"/><use transform="matrix(0.05,0,0,0.05,10,0)" xlink:href="#W"/><use transform="matrix(0.05,0,0,0.05,15.949999999999998,0)" xlink:href="#af"/><use transform="matrix(0.05,0,0,0.05,25.950000000000003,0)" xlink:href="#at"/><use transform="matrix(0.05,0,0,0.05,29.899999999999995,0)" xlink:href="#V"/><use transform="matrix(0.05,0,0,0.05,39.9,0)" xlink:href="#ae"/><use transform="matrix(0.05,0,0,0.05,48.9,0)" xlink:href="#ad"/><use transform="matrix(0.05,0,0,0.05,53.900000000000006,0)" xlink:href="#X"/><use transform="matrix(0.05,0,0,0.05,58.900000000000006,0)" xlink:href="#Y"/></g><path fill="#3a414a" d="M143 0L79-87 56-68V0H24v-261h32v163l83-92h37l-77 82L181 0h-38" id="aC"/><g id="y"><use transform="matrix(0.05,0,0,0.05,0,0)" xlink:href="#an"/><use transform="matrix(0.05,0,0,0.05,8.950000000000001,0)" xlink:href="#ao"/><use transform="matrix(0.05,0,0,0.05,18.950000000000003,0)" xlink:href="#Q"/><use transform="matrix(0.05,0,0,0.05,27.950000000000003,0)" xlink:href="#aC"/></g><g id="z"><use transform="matrix(0.05,0,0,0.05,0,0)" xlink:href="#ad"/><use transform="matrix(0.05,0,0,0.05,5,0)" xlink:href="#ab"/><use transform="matrix(0.05,0,0,0.05,8.95,0)" xlink:href="#ad"/><use transform="matrix(0.05,0,0,0.05,13.949999999999998,0)" xlink:href="#al"/><use transform="matrix(0.05,0,0,0.05,17.9,0)" xlink:href="#V"/></g><g id="A"><use transform="matrix(0.05,0,0,0.05,0,0)" xlink:href="#U"/><use transform="matrix(0.05,0,0,0.05,9,0)" xlink:href="#ad"/><use transform="matrix(0.05,0,0,0.05,14,0)" xlink:href="#ah"/><use transform="matrix(0.05,0,0,0.05,24,0)" xlink:href="#ad"/><use transform="matrix(0.05,0,0,0.05,29,0)" xlink:href="#T"/><use transform="matrix(0.05,0,0,0.05,39,0)" xlink:href="#U"/></g><path d="M179-190L93 31C79 59 56 82 12 73V49c39 6 53-20 64-50L1-190h34L92-34l54-156h33" id="aD"/><g id="B"><use transform="matrix(0.05,0,0,0.05,0,0)" xlink:href="#aj"/><use transform="matrix(0.05,0,0,0.05,10,0)" xlink:href="#W"/><use transform="matrix(0.05,0,0,0.05,15.949999999999998,0)" xlink:href="#ab"/><use transform="matrix(0.05,0,0,0.05,19.9,0)" xlink:href="#af"/><use transform="matrix(0.05,0,0,0.05,29.899999999999995,0)" xlink:href="#W"/><use transform="matrix(0.05,0,0,0.05,35.85,0)" xlink:href="#ab"/><use transform="matrix(0.05,0,0,0.05,39.800000000000004,0)" xlink:href="#ad"/><use transform="matrix(0.05,0,0,0.05,44.800000000000004,0)" xlink:href="#aD"/></g><g id="C"><use transform="matrix(0.05,0,0,0.05,0,0)" xlink:href="#ad"/><use transform="matrix(0.05,0,0,0.05,5,0)" xlink:href="#ah"/><use transform="matrix(0.05,0,0,0.05,15,0)" xlink:href="#ag"/><use transform="matrix(0.05,0,0,0.05,25,0)" xlink:href="#U"/></g><g id="D"><use transform="matrix(0.05,0,0,0.05,0,0)" xlink:href="#Y"/><use transform="matrix(0.05,0,0,0.05,10,0)" xlink:href="#T"/><use transform="matrix(0.05,0,0,0.05,20,0)" xlink:href="#V"/><use transform="matrix(0.05,0,0,0.05,30,0)" xlink:href="#aA"/><use transform="matrix(0.05,0,0,0.05,42.95,0)" xlink:href="#ah"/><use transform="matrix(0.05,0,0,0.05,52.95,0)" xlink:href="#ad"/><use transform="matrix(0.05,0,0,0.05,57.95,0)" xlink:href="#V"/></g><g id="E"><use transform="matrix(0.05,0,0,0.05,0,0)" xlink:href="#aj"/><use transform="matrix(0.05,0,0,0.05,10,0)" xlink:href="#af"/><use transform="matrix(0.05,0,0,0.05,20,0)" xlink:href="#ab"/><use transform="matrix(0.05,0,0,0.05,23.95,0)" xlink:href="#ac"/><use transform="matrix(0.05,0,0,0.05,33.95,0)" xlink:href="#ad"/><use transform="matrix(0.05,0,0,0.05,38.95,0)" xlink:href="#U"/></g><path d="M106-169C34-169 62-67 57 0H25v-261h32l-1 103c12-21 28-36 61-36 89 0 53 116 60 194h-32v-121c2-32-8-49-39-48" id="aE"/><g id="F"><use transform="matrix(0.05,0,0,0.05,0,0)" xlink:href="#ah"/><use transform="matrix(0.05,0,0,0.05,10,0)" xlink:href="#T"/><use transform="matrix(0.05,0,0,0.05,20,0)" xlink:href="#ad"/><use transform="matrix(0.05,0,0,0.05,25,0)" xlink:href="#aE"/><use transform="matrix(0.05,0,0,0.05,35,0)" xlink:href="#af"/><use transform="matrix(0.05,0,0,0.05,45,0)" xlink:href="#W"/><use transform="matrix(0.05,0,0,0.05,50.95,0)" xlink:href="#am"/><use transform="matrix(0.05,0,0,0.05,63.900000000000006,0)" xlink:href="#U"/><use transform="matrix(0.05,0,0,0.05,72.9,0)" xlink:href="#V"/><use transform="matrix(0.05,0,0,0.05,82.9,0)" xlink:href="#W"/><use transform="matrix(0.05,0,0,0.05,88.85000000000001,0)" xlink:href="#X"/><use transform="matrix(0.05,0,0,0.05,93.85000000000001,0)" xlink:href="#Y"/></g><g id="G"><use transform="matrix(0.05,0,0,0.05,0,0)" xlink:href="#ah"/><use transform="matrix(0.05,0,0,0.05,10,0)" xlink:href="#U"/><use transform="matrix(0.05,0,0,0.05,19,0)" xlink:href="#U"/><use transform="matrix(0.05,0,0,0.05,28,0)" xlink:href="#ab"/><use transform="matrix(0.05,0,0,0.05,31.950000000000003,0)" xlink:href="#ag"/><use transform="matrix(0.05,0,0,0.05,41.95,0)" xlink:href="#ac"/><use transform="matrix(0.05,0,0,0.05,51.95,0)" xlink:href="#V"/><use transform="matrix(0.05,0,0,0.05,61.95,0)" xlink:href="#Y"/><use transform="matrix(0.05,0,0,0.05,71.95,0)" xlink:href="#am"/><use transform="matrix(0.05,0,0,0.05,84.9,0)" xlink:href="#U"/><use transform="matrix(0.05,0,0,0.05,93.9,0)" xlink:href="#V"/><use transform="matrix(0.05,0,0,0.05,103.9,0)" xlink:href="#W"/><use transform="matrix(0.05,0,0,0.05,109.85000000000001,0)" xlink:href="#X"/><use transform="matrix(0.05,0,0,0.05,114.85000000000001,0)" xlink:href="#Y"/></g><path fill="#3a414a" d="M205 0l-28-72H64L36 0H1l101-248h38L239 0h-34zm-38-99l-47-123c-12 45-31 82-46 123h93" id="aF"/><path fill="#3a414a" d="M24-231v-30h32v30H24zM24 0v-190h32V0H24" id="aG"/><path fill="#3a414a" d="M177-190C167-65 218 103 67 71c-23-6-38-20-44-43l32-5c15 47 100 32 89-28v-30C133-14 115 1 83 1 29 1 15-40 15-95c0-56 16-97 71-98 29-1 48 16 59 35 1-10 0-23 2-32h30zM94-22c36 0 50-32 50-73 0-42-14-75-50-75-39 0-46 34-46 75s6 73 46 73" id="aH"/><path fill="#3a414a" d="M117-194c89-4 53 116 60 194h-32v-121c0-31-8-49-39-48C34-167 62-67 57 0H25l-1-190h30c1 10-1 24 2 32 11-22 29-35 61-36" id="aI"/><g id="H"><use transform="matrix(0.05,0,0,0.05,0,0)" xlink:href="#an"/><use transform="matrix(0.05,0,0,0.05,8.950000000000001,0)" xlink:href="#ao"/><use transform="matrix(0.05,0,0,0.05,18.950000000000003,0)" xlink:href="#Q"/><use transform="matrix(0.05,0,0,0.05,27.950000000000003,0)" xlink:href="#aC"/><use transform="matrix(0.05,0,0,0.05,36.95,0)" xlink:href="#aF"/><use transform="matrix(0.05,0,0,0.05,48.95,0)" xlink:href="#Q"/><use transform="matrix(0.05,0,0,0.05,57.95,0)" xlink:href="#Q"/><use transform="matrix(0.05,0,0,0.05,66.95,0)" xlink:href="#aG"/><use transform="matrix(0.05,0,0,0.05,70.9,0)" xlink:href="#aH"/><use transform="matrix(0.05,0,0,0.05,80.9,0)" xlink:href="#aI"/><use transform="matrix(0.05,0,0,0.05,90.9,0)" xlink:href="#ap"/><use transform="matrix(0.05,0,0,0.05,105.85000000000001,0)" xlink:href="#R"/><use transform="matrix(0.05,0,0,0.05,115.85000000000001,0)" xlink:href="#aI"/><use transform="matrix(0.05,0,0,0.05,125.85000000000001,0)" xlink:href="#az"/></g><path d="M143 0L79-87 56-68V0H24v-261h32v163l83-92h37l-77 82L181 0h-38" id="aJ"/><g id="I"><use transform="matrix(0.05,0,0,0.05,0,0)" xlink:href="#ad"/><use transform="matrix(0.05,0,0,0.05,5,0)" xlink:href="#ah"/><use transform="matrix(0.05,0,0,0.05,15,0)" xlink:href="#U"/><use transform="matrix(0.05,0,0,0.05,24,0)" xlink:href="#aJ"/><use transform="matrix(0.05,0,0,0.05,33,0)" xlink:href="#X"/><use transform="matrix(0.05,0,0,0.05,38,0)" xlink:href="#Y"/></g><path fill="#3a414a" d="M106-169C34-169 62-67 57 0H25v-261h32l-1 103c12-21 28-36 61-36 89 0 53 116 60 194h-32v-121c2-32-8-49-39-48" id="aK"/><g id="J"><use transform="matrix(0.05,0,0,0.05,0,0)" xlink:href="#aF"/><use transform="matrix(0.05,0,0,0.05,12,0)" xlink:href="#az"/><use transform="matrix(0.05,0,0,0.05,17,0)" xlink:href="#az"/><use transform="matrix(0.05,0,0,0.05,22,0)" xlink:href="#ao"/><use transform="matrix(0.05,0,0,0.05,32,0)" xlink:href="#ay"/><use transform="matrix(0.05,0,0,0.05,41,0)" xlink:href="#aK"/><use transform="matrix(0.05,0,0,0.05,51,0)" xlink:href="#ap"/><use transform="matrix(0.05,0,0,0.05,65.95,0)" xlink:href="#R"/><use transform="matrix(0.05,0,0,0.05,75.95,0)" xlink:href="#aI"/><use transform="matrix(0.05,0,0,0.05,85.95,0)" xlink:href="#az"/></g><path d="M233-177c-1 41-23 64-60 70L243 0h-38l-65-103H63V0H30v-248c88 3 205-21 203 71zM63-129c60-2 137 13 137-47 0-61-80-42-137-45v92" id="aL"/><path d="M30 0v-248h33v221h125V0H30" id="aM"/><g id="K"><use transform="matrix(0.05,0,0,0.05,0,0)" xlink:href="#ak"/><use transform="matrix(0.05,0,0,0.05,5,0)" xlink:href="#ab"/><use transform="matrix(0.05,0,0,0.05,8.95,0)" xlink:href="#al"/><use transform="matrix(0.05,0,0,0.05,12.899999999999999,0)" xlink:href="#V"/><use transform="matrix(0.05,0,0,0.05,22.9,0)" xlink:href="#am"/><use transform="matrix(0.05,0,0,0.05,35.85,0)" xlink:href="#aL"/><use transform="matrix(0.05,0,0,0.05,48.800000000000004,0)" xlink:href="#aM"/></g><g id="L"><use transform="matrix(0.05,0,0,0.05,0,0)" xlink:href="#ak"/><use transform="matrix(0.05,0,0,0.05,5,0)" xlink:href="#ab"/><use transform="matrix(0.05,0,0,0.05,8.95,0)" xlink:href="#al"/><use transform="matrix(0.05,0,0,0.05,12.899999999999999,0)" xlink:href="#V"/><use transform="matrix(0.05,0,0,0.05,22.9,0)" xlink:href="#aq"/><use transform="matrix(0.05,0,0,0.05,35.85,0)" xlink:href="#ah"/><use transform="matrix(0.05,0,0,0.05,45.85,0)" xlink:href="#ai"/><use transform="matrix(0.05,0,0,0.05,60.800000000000004,0)" xlink:href="#V"/></g><path d="M160-131c35 5 61 23 61 61C221 17 115-2 30 0v-248c76 3 177-17 177 60 0 33-19 50-47 57zm-97-11c50-1 110 9 110-42 0-47-63-36-110-37v79zm0 115c55-2 124 14 124-45 0-56-70-42-124-44v89" id="aN"/><g id="M"><use transform="matrix(0.05,0,0,0.05,0,0)" xlink:href="#T"/><use transform="matrix(0.05,0,0,0.05,10,0)" xlink:href="#aj"/><use transform="matrix(0.05,0,0,0.05,20,0)" xlink:href="#al"/><use transform="matrix(0.05,0,0,0.05,23.95,0)" xlink:href="#af"/><use transform="matrix(0.05,0,0,0.05,33.95,0)" xlink:href="#ah"/><use transform="matrix(0.05,0,0,0.05,43.95,0)" xlink:href="#Y"/><use transform="matrix(0.05,0,0,0.05,53.95,0)" xlink:href="#V"/><use transform="matrix(0.05,0,0,0.05,63.95,0)" xlink:href="#Y"/><use transform="matrix(0.05,0,0,0.05,73.95,0)" xlink:href="#aN"/><use transform="matrix(0.05,0,0,0.05,85.95,0)" xlink:href="#aD"/><use transform="matrix(0.05,0,0,0.05,94.95,0)" xlink:href="#X"/><use transform="matrix(0.05,0,0,0.05,99.95,0)" xlink:href="#Y"/></g><path fill="#3a414a" d="M212-179c-10-28-35-45-73-45-59 0-87 40-87 99 0 60 29 101 89 101 43 0 62-24 78-52l27 14C228-24 195 4 139 4 59 4 22-46 18-125c-6-104 99-153 187-111 19 9 31 26 39 46" id="aO"/><g id="N"><use transform="matrix(0.05,0,0,0.05,0,0)" xlink:href="#aO"/><use transform="matrix(0.05,0,0,0.05,12.950000000000001,0)" xlink:href="#aw"/><use transform="matrix(0.05,0,0,0.05,22.950000000000003,0)" xlink:href="#ap"/><use transform="matrix(0.05,0,0,0.05,37.900000000000006,0)" xlink:href="#ap"/><use transform="matrix(0.05,0,0,0.05,52.85,0)" xlink:href="#R"/><use transform="matrix(0.05,0,0,0.05,62.85,0)" xlink:href="#aI"/><use transform="matrix(0.05,0,0,0.05,72.85000000000001,0)" xlink:href="#az"/></g><path d="M141 0L90-78 38 0H4l68-98-65-92h35l48 74 47-74h35l-64 92 68 98h-35" id="aP"/><g id="O"><use transform="matrix(0.05,0,0,0.05,0,0)" xlink:href="#ad"/><use transform="matrix(0.05,0,0,0.05,5,0)" xlink:href="#V"/><use transform="matrix(0.05,0,0,0.05,15,0)" xlink:href="#aP"/><use transform="matrix(0.05,0,0,0.05,24,0)" xlink:href="#ad"/></g></defs></g></svg>